<?xml version="1.0" encoding="UTF-8"?><svg id="Capa_2" xmlns="http://www.w3.org/2000/svg" viewBox="0 0 532.83 113.69"><defs><style>.cls-1{fill:#fff;}.cls-2{fill:#b83390;}</style></defs><g id="Capa_1-2"><g><g><path class="cls-2" d="M32.12,112.21c-3.6,0-7.16-.51-10.6-1.51-3.45-1.01-6.64-2.52-9.47-4.49-3.26-2.59-5.92-5.77-7.96-9.49-2.05-3.75-3.09-7.96-3.09-12.51,0-1.48,.15-3.12,.43-4.87,.28-1.73,.66-3.43,1.1-5.05,1.02-2.69,2.44-5.17,4.26-7.47,1.8-2.27,3.83-4.29,6.02-5.99,2.19-1.7,4.49-3.08,6.81-4.09,2.38-1.03,4.66-1.55,6.79-1.55,1.39,0,2.69,.21,3.87,.63,1.23,.43,2.31,1.13,3.21,2.08,.89,.94,1.6,2.12,2.11,3.53,.5,1.39,.75,3.06,.75,4.96v.12c.46-2.97,.9-6,1.31-9.01,.44-3.24,.84-6.27,1.2-9.11l.42-3.24c.28-2.05,.55-4.03,.81-5.97,.26-1.95,.52-3.78,.78-5.51,.26-1.73,.54-3.33,.82-4.75,.09-.48,.19-.94,.29-1.38-.37,.19-.75,.37-1.13,.56-1.18,.56-2.36,1.07-3.51,1.53-1.19,.47-2.39,.89-3.57,1.23-1.2,.35-2.36,.62-3.43,.78-.53,.06-1.01,.08-1.47,.08-.77,0-1.52-.07-2.23-.21-1.15-.22-2.18-.6-3.05-1.11-.91-.54-1.65-1.24-2.19-2.09-.56-.88-.85-1.91-.85-3.06,0-1.62,.72-3.49,2.21-5.71,1.12-1.46,2.48-2.85,4.1-4.18,1.58-1.3,3.23-2.5,4.89-3.58,1.66-1.08,3.28-2.03,4.82-2.83,1.56-.82,2.83-1.46,3.89-1.94,4.61-2.06,9.01-3.59,13.09-4.54,4.1-.95,7.91-1.44,11.33-1.44,5.18,0,9.72,.99,13.51,2.93,3.78,1.94,6.96,4.64,9.44,8.01,2.46,3.35,4.31,7.3,5.5,11.77,1.18,4.42,1.77,9.22,1.77,14.24,0,1.86-.11,3.88-.34,5.99-.22,2.09-.52,4.25-.88,6.42-.36,2.17-.8,4.35-1.3,6.49-.5,2.14-1.04,4.17-1.6,6.06-1.71,4.73-3.98,9.49-6.76,14.2-2.78,4.71-6.01,9.2-9.62,13.35-3.61,4.15-7.61,7.92-11.91,11.21-4.32,3.3-8.91,5.9-13.66,7.73-2.73,.83-5.56,1.51-8.46,2.03-2.93,.53-5.77,.79-8.46,.79Zm-4.8-50.46c-1.11,0-2.35,.36-3.7,1.08-1.41,.75-2.8,1.79-4.12,3.08-1.34,1.3-2.6,2.84-3.73,4.57-1.12,1.72-2,3.55-2.61,5.46-.54,1.85-.98,3.71-1.29,5.51-.31,1.78-.47,3.43-.47,4.93,0,3.1,.49,5.98,1.47,8.56,.96,2.54,2.42,4.75,4.34,6.55,1.7,1.7,3.68,2.92,5.9,3.65,2.27,.74,4.7,1.12,7.22,1.12s5.11-.36,7.65-1.07c2.55-.72,4.96-1.71,7.16-2.94,2.8-1.69,5.6-4.02,8.31-6.92,2.73-2.93,5.31-6.26,7.66-9.91,2.36-3.67,4.55-7.62,6.51-11.76,1.95-4.14,3.62-8.38,4.96-12.6,.63-2.13,1.22-4.34,1.75-6.53,.53-2.21,1-4.45,1.4-6.66,.39-2.2,.69-4.39,.89-6.52,.2-2.12,.3-4.17,.3-6.09,0-3.75-.37-7.28-1.09-10.49-.71-3.17-1.83-5.95-3.31-8.26-1.46-2.27-3.37-4.08-5.68-5.37-2.3-1.29-5.11-1.94-8.36-1.94-2.07,0-4.47,.32-7.12,.96-2.67,.64-5.56,1.62-8.57,2.92-3.18,1.33-6.04,2.79-8.5,4.34-2.43,1.53-4.24,2.93-5.37,4.18-1.52,1.73-1.84,2.78-1.84,3.35,0,.12,0,.25,.34,.41,.18,.08,.43,.12,.74,.12,.38,0,.83-.06,1.36-.18,.69-.21,1.53-.53,2.43-.93,.93-.42,1.89-.87,2.87-1.36,.98-.49,1.95-1,2.9-1.54,.95-.54,1.87-1.06,2.74-1.58l2.46-1.44,2.4-1.3c.75-.41,1.35-.69,1.85-.87,.86-.33,1.71-.59,2.51-.78,.84-.2,1.55-.3,2.15-.3,1.08,0,1.98,.24,2.67,.72,.68,.47,1.2,1.13,1.55,1.96,.32,.76,.52,1.66,.59,2.67,.06,.92,.07,1.96,.03,3.07,0,0,0,.02,0,.03,0,.05,0,.09,0,.14-.4,2.73-.89,5.93-1.47,9.5l-1.83,11.19c-.64,3.9-1.3,7.83-1.98,11.77l-1.92,11.1c-.6,3.46-1.15,6.57-1.65,9.34-.5,2.76-.89,4.89-1.17,6.37-.02,.12-.07,.23-.13,.33-.36,1-.81,2-1.32,2.98-.58,1.1-1.31,2.09-2.16,2.94-.86,.86-1.9,1.57-3.09,2.1-1.2,.54-2.63,.81-4.25,.81h-1.41c-.34,0-.62-.03-.87-.09-.12-.03-.23-.08-.32-.14-.68-.28-1.27-.6-1.76-.94-.39-.28-1.19-1.05-.7-2.5-.04-.37,.03-.74,.22-1.08,.12-.21,.21-.39,.29-.55,.23-.38,.48-.8,.77-1.32,.27-.49,.57-1.06,.87-1.71,.66-2.15,1.29-4.69,1.87-7.55,.29-1.44,.58-2.94,.85-4.46-.55,.73-1.18,1.1-1.88,1.1-.8-.03-1.45-.31-1.94-.8-.21-.21-.31-.5-.29-.8,.04-.43,.07-.83,.09-1.22,.02-.38,.03-.75,.03-1.09,0-2.69-.42-4.62-1.25-5.74-.77-1.04-1.72-1.54-2.92-1.54Z"/><path class="cls-1" d="M64.88,2.01c5.04,0,9.39,.94,13.05,2.82,3.66,1.88,6.69,4.45,9.09,7.71,2.4,3.26,4.18,7.07,5.34,11.43,1.16,4.36,1.74,9.02,1.74,13.98,0,1.84-.11,3.8-.33,5.88-.22,2.08-.51,4.2-.87,6.36-.36,2.16-.79,4.3-1.29,6.42-.5,2.12-1.03,4.12-1.59,6-1.68,4.64-3.9,9.3-6.66,13.98-2.76,4.68-5.93,9.08-9.51,13.2-3.58,4.12-7.5,7.81-11.76,11.07-4.26,3.26-8.73,5.79-13.41,7.59-2.64,.8-5.4,1.46-8.28,1.98-2.88,.52-5.64,.78-8.28,.78-3.52,0-6.96-.49-10.32-1.47-3.36-.98-6.42-2.43-9.18-4.35-3.12-2.48-5.67-5.53-7.65-9.15s-2.97-7.63-2.97-12.03c0-1.44,.14-3.01,.42-4.71,.28-1.7,.64-3.35,1.08-4.95,.96-2.52,2.32-4.89,4.08-7.11,1.76-2.22,3.71-4.16,5.85-5.82,2.14-1.66,4.34-2.98,6.6-3.96,2.26-.98,4.39-1.47,6.39-1.47,1.28,0,2.46,.19,3.54,.57,1.08,.38,2.02,.99,2.82,1.83,.8,.84,1.43,1.9,1.89,3.18,.46,1.28,.69,2.82,.69,4.62,0,1.64-.14,3.14-.42,4.5v-.06c-.43,.74-.88,1.11-1.34,1.11-.01,0-.03,0-.04,0-.48-.02-.88-.19-1.2-.51,.04-.44,.07-.86,.09-1.26,.02-.4,.03-.78,.03-1.14,0-2.92-.48-5.03-1.44-6.33-.96-1.3-2.2-1.95-3.72-1.95-1.28,0-2.67,.4-4.17,1.2-1.5,.8-2.95,1.88-4.35,3.24-1.4,1.36-2.69,2.94-3.87,4.74-1.18,1.8-2.09,3.7-2.73,5.7-.56,1.92-1,3.8-1.32,5.64-.32,1.84-.48,3.54-.48,5.1,0,3.24,.51,6.21,1.53,8.91,1.02,2.7,2.55,5.01,4.59,6.93,1.8,1.8,3.89,3.09,6.27,3.87,2.38,.78,4.89,1.17,7.53,1.17s5.28-.37,7.92-1.11c2.64-.74,5.1-1.75,7.38-3.03,2.92-1.76,5.77-4.13,8.55-7.11,2.78-2.98,5.37-6.33,7.77-10.05,2.4-3.72,4.59-7.68,6.57-11.88s3.65-8.44,5.01-12.72c.64-2.16,1.23-4.36,1.77-6.6,.54-2.24,1.01-4.48,1.41-6.72,.4-2.24,.7-4.44,.9-6.6,.2-2.16,.3-4.22,.3-6.18,0-3.84-.37-7.41-1.11-10.71-.74-3.3-1.89-6.16-3.45-8.58-1.56-2.42-3.57-4.32-6.03-5.7-2.46-1.38-5.41-2.07-8.85-2.07-2.16,0-4.61,.33-7.35,.99-2.74,.66-5.65,1.65-8.73,2.97-3.24,1.36-6.12,2.83-8.64,4.41-2.52,1.58-4.38,3.03-5.58,4.35-1.4,1.6-2.1,2.94-2.1,4.02,0,.6,.31,1.04,.93,1.32,.31,.14,.69,.21,1.15,.21s.98-.07,1.58-.21c.8-.24,1.67-.57,2.61-.99,.94-.42,1.91-.88,2.91-1.38,1-.5,1.98-1.02,2.94-1.56,.96-.54,1.88-1.07,2.76-1.59l2.46-1.44c.88-.48,1.67-.91,2.37-1.29,.7-.38,1.27-.65,1.71-.81,.84-.32,1.64-.57,2.4-.75,.76-.18,1.4-.27,1.92-.27,.88,0,1.58,.18,2.1,.54,.52,.36,.92,.87,1.2,1.53,.28,.66,.45,1.44,.51,2.34,.06,.9,.07,1.89,.03,2.97l-.06,.06h.06c-.4,2.76-.89,5.92-1.47,9.48-.58,3.56-1.19,7.29-1.83,11.19-.64,3.9-1.3,7.82-1.98,11.76-.68,3.94-1.32,7.64-1.92,11.1-.6,3.46-1.15,6.57-1.65,9.33-.5,2.76-.89,4.88-1.17,6.36v-.06c-.36,1.04-.81,2.07-1.35,3.09-.54,1.02-1.2,1.92-1.98,2.7-.78,.78-1.71,1.41-2.79,1.89-1.08,.48-2.36,.72-3.84,.72h-1.41c-.26,0-.47-.02-.63-.06h.06c-.72-.28-1.32-.59-1.8-.93s-.56-.87-.24-1.59c-.08-.24-.06-.47,.06-.69s.22-.41,.3-.57c.2-.32,.45-.75,.75-1.29,.3-.54,.61-1.15,.93-1.83,.68-2.2,1.32-4.77,1.92-7.71,.6-2.94,1.15-6.01,1.65-9.21,.5-3.2,.97-6.42,1.41-9.66,.44-3.24,.84-6.28,1.2-9.12l.42-3.24c.28-2.04,.55-4.03,.81-5.97,.26-1.94,.52-3.77,.78-5.49,.26-1.72,.53-3.29,.81-4.71,.28-1.42,.58-2.61,.9-3.57-.96,.56-2.01,1.11-3.15,1.65-1.14,.54-2.29,1.04-3.45,1.5-1.16,.46-2.32,.86-3.48,1.2-1.16,.34-2.26,.59-3.3,.75-.45,.05-.89,.07-1.32,.07-.71,0-1.39-.06-2.04-.19-1.04-.2-1.95-.53-2.73-.99-.78-.46-1.4-1.05-1.86-1.77-.46-.72-.69-1.56-.69-2.52,0-1.4,.68-3.12,2.04-5.16,1.04-1.36,2.34-2.68,3.9-3.96,1.56-1.28,3.16-2.45,4.8-3.51,1.64-1.06,3.22-1.99,4.74-2.79,1.52-.8,2.8-1.44,3.84-1.92,4.56-2.04,8.86-3.53,12.9-4.47,4.04-.94,7.74-1.41,11.1-1.41m-9.24,21.6h0M64.88,0c-3.49,0-7.38,.49-11.55,1.46-4.14,.96-8.61,2.51-13.26,4.59-1.09,.5-2.38,1.15-3.95,1.98-1.56,.82-3.21,1.79-4.89,2.88-1.69,1.1-3.37,2.32-4.98,3.64-1.67,1.37-3.09,2.82-4.22,4.29-.03,.03-.05,.07-.08,.11-1.6,2.4-2.38,4.45-2.38,6.27,0,1.34,.34,2.55,1.01,3.6,.63,.99,1.48,1.8,2.53,2.42,.97,.57,2.1,.99,3.37,1.23,.77,.15,1.58,.22,2.42,.22,.49,0,1.01-.03,1.52-.08,.03,0,.07,0,.1-.01,1.12-.17,2.31-.44,3.56-.81,1.2-.35,2.43-.78,3.65-1.26,.95-.37,1.91-.79,2.89-1.23-.24,1.29-.48,2.7-.71,4.21-.26,1.71-.52,3.57-.78,5.52-.26,1.94-.53,3.93-.81,5.96l-.42,3.25c-.35,2.79-.76,5.86-1.2,9.11-.14,1-.27,2-.42,3-.53-1.22-1.21-2.28-2.03-3.14-1.02-1.07-2.23-1.85-3.6-2.34-1.29-.45-2.71-.68-4.21-.68-2.27,0-4.68,.55-7.19,1.64-2.4,1.04-4.77,2.46-7.03,4.21-2.26,1.75-4.34,3.82-6.19,6.16-1.88,2.37-3.35,4.94-4.38,7.64-.02,.06-.04,.12-.06,.18-.46,1.66-.83,3.4-1.12,5.16-.3,1.8-.45,3.5-.45,5.03,0,4.72,1.08,9.09,3.22,12.99,2.1,3.84,4.84,7.12,8.16,9.76,.03,.03,.07,.05,.1,.08,2.92,2.03,6.21,3.59,9.76,4.63,3.53,1.03,7.19,1.55,10.88,1.55,2.75,0,5.65-.27,8.64-.81,2.94-.53,5.8-1.22,8.5-2.03,.05-.01,.09-.03,.14-.05,4.84-1.86,9.51-4.51,13.91-7.87,4.35-3.33,8.4-7.14,12.05-11.35,3.64-4.19,6.92-8.73,9.72-13.5,2.81-4.77,5.1-9.58,6.82-14.32,.01-.04,.03-.07,.04-.11,.57-1.9,1.11-3.96,1.62-6.11,.51-2.15,.95-4.36,1.32-6.55,.36-2.19,.66-4.36,.89-6.48,.23-2.14,.34-4.19,.34-6.09,0-5.11-.61-9.99-1.81-14.49-1.22-4.58-3.12-8.65-5.66-12.1-2.57-3.5-5.87-6.29-9.79-8.3C74.92,1.03,70.22,0,64.88,0h0ZM28.17,24.46c.16-.43,.55-1.15,1.5-2.23,1.05-1.15,2.78-2.5,5.14-3.97,2.42-1.52,5.23-2.95,8.35-4.26,2.98-1.28,5.81-2.24,8.42-2.87,2.57-.62,4.89-.93,6.88-.93,3.08,0,5.73,.61,7.87,1.81,2.16,1.21,3.95,2.91,5.33,5.04,1.42,2.21,2.49,4.88,3.18,7.93,.7,3.14,1.06,6.6,1.06,10.27,0,1.88-.1,3.9-.29,6-.19,2.09-.49,4.26-.88,6.43-.39,2.2-.86,4.42-1.39,6.6-.52,2.18-1.11,4.37-1.74,6.5-1.31,4.14-2.97,8.33-4.9,12.43-1.93,4.1-4.1,8.02-6.44,11.65-2.32,3.6-4.86,6.89-7.55,9.77-2.63,2.82-5.36,5.09-8.09,6.74-2.12,1.19-4.45,2.14-6.91,2.83-2.45,.69-4.94,1.04-7.38,1.04s-4.74-.36-6.91-1.07c-2.07-.68-3.91-1.82-5.48-3.38-.01-.01-.03-.03-.04-.04-1.81-1.7-3.18-3.78-4.09-6.18-.93-2.46-1.4-5.22-1.4-8.2,0-1.44,.15-3.04,.45-4.76,.3-1.75,.73-3.57,1.26-5.4,.58-1.81,1.42-3.55,2.49-5.19,1.09-1.67,2.3-3.15,3.59-4.4,1.26-1.22,2.57-2.2,3.9-2.91,1.2-.64,2.29-.96,3.23-.96,.88,0,1.53,.35,2.11,1.14,.48,.65,1.05,2.07,1.05,5.14,0,.33-.01,.68-.03,1.04-.02,.37-.05,.77-.08,1.18-.05,.59,.16,1.17,.58,1.59,.68,.68,1.55,1.05,2.53,1.09,.03,0,.09,0,.12,0,.15,0,.31-.01,.48-.04-.14,.74-.29,1.48-.43,2.2-.57,2.8-1.19,5.28-1.83,7.38-.28,.6-.56,1.13-.81,1.58-.27,.49-.51,.9-.7,1.21-.03,.05-.06,.09-.08,.14-.07,.15-.17,.32-.28,.52-.25,.45-.36,.94-.35,1.44-.46,1.6,.24,2.81,1.13,3.44,.53,.38,1.15,.71,1.87,1.02,.17,.1,.35,.18,.55,.22,.32,.08,.69,.12,1.11,.12h1.41c1.76,0,3.32-.3,4.65-.89,1.3-.58,2.44-1.35,3.39-2.3,.92-.92,1.7-1.99,2.33-3.18,.53-.99,.98-2.01,1.35-3.03,.09-.17,.16-.36,.2-.56,.28-1.48,.67-3.61,1.17-6.38,.5-2.78,1.06-5.92,1.65-9.34,.6-3.46,1.24-7.16,1.92-11.1,.67-3.89,1.34-7.85,1.98-11.78,.64-3.9,1.25-7.63,1.83-11.19,.57-3.53,1.07-6.69,1.46-9.41,.03-.13,.04-.26,.04-.39,0-.02,0-.04,0-.07,.04-1.12,.03-2.16-.04-3.1-.07-1.12-.3-2.12-.66-2.99-.43-1.01-1.07-1.82-1.9-2.39-.86-.6-1.95-.9-3.24-.9-.68,0-1.46,.11-2.38,.32-.84,.2-1.73,.48-2.65,.83-.51,.19-1.16,.49-1.95,.92-.7,.38-1.49,.81-2.37,1.29-.02,0-.04,.02-.05,.03l-2.46,1.44c-.85,.5-1.77,1.03-2.73,1.57-.93,.53-1.89,1.03-2.85,1.51-.96,.48-1.92,.93-2.83,1.34-.83,.37-1.61,.67-2.31,.88-.5,.11-.83,.14-1.04,.14h0Z"/></g><g><path class="cls-2" d="M105.08,85.45c-2.25,0-4.22-.49-5.83-1.46-1.59-.96-2.9-2.25-3.88-3.84-.96-1.55-1.66-3.35-2.08-5.36-.41-1.96-.62-4.04-.62-6.18v-1.53c0-.54,.04-1.12,.13-1.73,0-.02,0-.04,0-.05,.21-2.23,.62-4.52,1.21-6.81,.61-2.34,1.4-4.65,2.36-6.86,.96-2.22,2.08-4.33,3.35-6.27,1.27-1.95,2.71-3.7,4.25-5.18,1.57-1.5,3.27-2.71,5.06-3.57,1.83-.88,3.76-1.33,5.74-1.33s3.67,.43,5.19,1.26c1.49,.82,2.77,1.91,3.79,3.23,1.01,1.31,1.77,2.82,2.27,4.46,.49,1.64,.7,3.34,.61,5.05-.26,2.46-1.13,4.7-2.59,6.72-1.41,1.95-3.14,3.7-5.13,5.19-1.97,1.48-4.13,2.73-6.41,3.72-2.05,.88-4.04,1.56-5.95,2.02-.09,.46-.17,.93-.24,1.4-.1,.71-.19,1.46-.27,2.24-.04,.31-.06,.59-.06,.89v.99c0,.82,.07,1.62,.2,2.38,.12,.71,.34,1.35,.64,1.91,.28,.52,.67,.93,1.17,1.26,.48,.32,1.12,.51,1.88,.58,1.32-.04,2.54-.46,3.73-1.27,1.28-.87,2.5-1.95,3.62-3.22,1.14-1.3,2.2-2.71,3.15-4.2,.97-1.53,1.84-2.94,2.59-4.2,.04-.07,.09-.13,.14-.18,.89-1.56,1.73-3.13,2.5-4.65,.82-1.62,1.57-3.09,2.25-4.42,.33-.61,.68-1.29,1.08-2.05,.41-.77,.77-1.44,1.1-2.01,.11-.19,.28-.34,.48-.43,.76-.32,1.04-.38,1.28-.38,.62,0,1.17,.21,1.58,.62,.3,.3,.55,.66,.76,1.07,.14,.27,.14,.59,.02,.86l-.6,1.32c-.73,1.49-1.63,3.29-2.69,5.35-1.07,2.07-2.25,4.24-3.53,6.44-1.07,1.91-2.29,3.95-3.62,6.06-1.35,2.15-2.92,4.14-4.67,5.9-1.77,1.79-3.81,3.28-6.08,4.45-2.31,1.19-4.98,1.79-7.93,1.79Zm14.64-41.04c-.52,0-1.15,.29-1.87,.86-.83,.66-1.68,1.56-2.54,2.65-.88,1.13-1.76,2.42-2.61,3.81-.86,1.41-1.64,2.83-2.32,4.24-.68,1.41-1.3,2.77-1.84,4.06-.23,.56-.43,1.08-.6,1.54,.9-.22,1.88-.54,2.93-.97,1.72-.69,3.4-1.6,4.99-2.71,1.57-1.1,2.95-2.38,4.08-3.82,1.09-1.38,1.69-2.83,1.83-4.45,.14-1.3-.13-2.65-.8-4.03-.4-.77-.83-1.18-1.26-1.18Z"/><path class="cls-1" d="M114.8,36.27c1.76,0,3.33,.38,4.71,1.14,1.38,.76,2.54,1.75,3.48,2.97,.94,1.22,1.64,2.6,2.1,4.14,.46,1.54,.65,3.11,.57,4.71-.24,2.24-1.04,4.3-2.4,6.18-1.36,1.88-3,3.54-4.92,4.98s-3.99,2.64-6.21,3.6c-2.22,.96-4.35,1.66-6.39,2.1-.16,.68-.29,1.38-.39,2.1-.1,.72-.19,1.48-.27,2.28-.04,.32-.06,.65-.06,.99v.99c0,.88,.07,1.73,.21,2.55,.14,.82,.39,1.56,.75,2.22,.36,.66,.86,1.2,1.5,1.62,.64,.42,1.44,.67,2.4,.75,1.52-.04,2.96-.52,4.32-1.44,1.36-.92,2.63-2.05,3.81-3.39,1.18-1.34,2.26-2.78,3.24-4.32,.98-1.54,1.85-2.95,2.61-4.23v.06c.96-1.68,1.85-3.33,2.67-4.95,.82-1.62,1.57-3.09,2.25-4.41,.32-.6,.68-1.28,1.08-2.04,.4-.76,.76-1.42,1.08-1.98,.48-.2,.78-.3,.9-.3,.36,0,.65,.11,.87,.33,.22,.22,.41,.49,.57,.81l-.6,1.32c-.72,1.48-1.61,3.25-2.67,5.31-1.06,2.06-2.23,4.19-3.51,6.39-1.08,1.92-2.28,3.93-3.6,6.03s-2.83,4.01-4.53,5.73c-1.7,1.72-3.64,3.14-5.82,4.26-2.18,1.12-4.67,1.68-7.47,1.68-2.08,0-3.85-.44-5.31-1.32-1.46-.88-2.64-2.05-3.54-3.51-.9-1.46-1.55-3.14-1.95-5.04s-.6-3.89-.6-5.97v-1.53c0-.5,.04-1.03,.12-1.59v.06c.2-2.24,.6-4.51,1.2-6.81,.6-2.3,1.37-4.54,2.31-6.72,.94-2.18,2.03-4.22,3.27-6.12,1.24-1.9,2.61-3.57,4.11-5.01s3.1-2.57,4.8-3.39c1.7-.82,3.47-1.23,5.31-1.23m-8.28,26.58c1.36-.16,2.94-.6,4.74-1.32,1.8-.72,3.53-1.66,5.19-2.82,1.66-1.16,3.09-2.5,4.29-4.02,1.2-1.52,1.88-3.18,2.04-4.98,.16-1.48-.14-3-.9-4.56-.6-1.16-1.32-1.74-2.16-1.74-.76,0-1.59,.36-2.49,1.08s-1.8,1.66-2.7,2.82c-.9,1.16-1.79,2.46-2.67,3.9-.88,1.44-1.67,2.88-2.37,4.32-.7,1.44-1.32,2.81-1.86,4.11s-.91,2.37-1.11,3.21m8.28-28.58c-2.14,0-4.21,.48-6.18,1.43-1.88,.91-3.67,2.17-5.32,3.75-1.6,1.54-3.08,3.34-4.4,5.36-1.3,1.99-2.45,4.15-3.43,6.42-.98,2.26-1.79,4.62-2.41,7.01-.61,2.32-1.02,4.65-1.24,6.92,0,.02,0,.03,0,.05-.09,.65-.14,1.28-.14,1.87v1.53c0,2.21,.22,4.35,.64,6.38,.44,2.12,1.19,4.03,2.21,5.68,1.06,1.73,2.48,3.13,4.21,4.17,1.77,1.07,3.9,1.61,6.34,1.61,3.11,0,5.93-.64,8.38-1.9,2.36-1.21,4.49-2.77,6.33-4.63,1.79-1.81,3.41-3.86,4.8-6.07,1.33-2.12,2.56-4.18,3.65-6.11,1.27-2.19,2.47-4.37,3.55-6.46,1.07-2.07,1.97-3.87,2.69-5.35,0-.02,.02-.03,.02-.05l.6-1.32c.25-.55,.24-1.18-.03-1.72-.26-.51-.57-.96-.94-1.33-.6-.6-1.39-.92-2.29-.92-.43,0-.86,.11-1.67,.45-.41,.17-.75,.47-.97,.85-.33,.58-.71,1.27-1.11,2.04-.4,.76-.76,1.43-1.08,2.03-.7,1.35-1.45,2.82-2.27,4.45-.75,1.48-1.56,3-2.43,4.52-.07,.08-.13,.16-.18,.25-.74,1.25-1.61,2.66-2.58,4.18-.92,1.44-1.95,2.81-3.05,4.07-1.06,1.21-2.22,2.24-3.43,3.05-1.01,.69-2.04,1.05-3.14,1.09-.57-.06-1.03-.2-1.36-.42-.36-.24-.64-.54-.84-.91-.25-.46-.43-1-.53-1.6-.12-.7-.18-1.45-.18-2.22v-.99c0-.26,.01-.51,.04-.74,0-.02,0-.03,0-.05,.08-.77,.16-1.51,.26-2.2,.03-.24,.07-.49,.11-.73,1.77-.46,3.61-1.1,5.48-1.91,2.36-1.02,4.58-2.31,6.62-3.84,2.07-1.55,3.87-3.37,5.34-5.41,1.56-2.16,2.49-4.56,2.77-7.14,0-.04,0-.08,0-.11,.09-1.82-.13-3.63-.65-5.38-.53-1.77-1.35-3.38-2.43-4.79-1.11-1.43-2.49-2.61-4.1-3.5-1.67-.92-3.58-1.39-5.67-1.39h0Zm-5.15,25.73c.49-1.15,1.04-2.36,1.64-3.6,.67-1.38,1.44-2.77,2.28-4.15,.83-1.36,1.69-2.61,2.54-3.72,.8-1.03,1.6-1.87,2.37-2.48,.63-.5,1.01-.61,1.17-.64,.07,.06,.24,.24,.45,.65,.58,1.18,.81,2.32,.69,3.43-.13,1.46-.66,2.74-1.62,3.96-1.07,1.36-2.37,2.58-3.87,3.62-1.53,1.07-3.14,1.94-4.79,2.6-.3,.12-.59,.23-.87,.33h0Z"/></g><g><path class="cls-2" d="M133.7,84.37c-1.62,0-3-.34-4.12-1.01-1.1-.67-1.98-1.55-2.6-2.64-.59-1.03-1.02-2.22-1.26-3.53-.23-1.26-.35-2.55-.35-3.84,0-.42,.01-.83,.03-1.25,.02-.41,.05-.85,.09-1.3,.12-1.33,.3-2.74,.52-4.2,.22-1.45,.49-2.93,.79-4.4,.3-1.47,.64-2.93,1-4.34,.36-1.4,.7-2.74,1.02-4.01,.56-2.16,1.05-4.19,1.46-6.04,.41-1.83,.67-3.42,.79-4.73,.03-.55,.03-1.05-.03-1.47-.06-.45-.12-.87-.2-1.25-.05-.23-.08-.43-.1-.62-.02-.19-.04-.4-.04-.6,.07-1,.55-1.71,1.35-2.06,.58-.25,1.23-.38,1.93-.38,1.68,0,3.07,.29,4.14,.87,1.07,.58,1.91,1.36,2.5,2.3,.57,.92,.94,1.94,1.1,3.06,.15,1.05,.18,2.12,.1,3.19-.08,1.06-.23,2.15-.44,3.23,.99-1.54,2.05-3.12,3.11-4.69,1.18-1.73,2.44-3.32,3.75-4.74,1.34-1.44,2.77-2.63,4.27-3.54,1.57-.95,3.27-1.44,5.05-1.44,1.28,0,2.36,.23,3.23,.69,.87,.46,1.58,1.1,2.09,1.91,.5,.78,.82,1.72,.96,2.78,.13,.98,.15,2.06,.07,3.2-.21,2.32-.75,4.92-1.6,7.75-.84,2.78-1.8,5.62-2.84,8.43-.87,2.53-1.69,5.06-2.44,7.5-.73,2.38-1.2,4.42-1.4,6.06,0,.38,.01,.82,.03,1.31,.02,.5,.06,.97,.14,1.4,.06,.35,.15,.63,.28,.83,.16-.05,.6-.26,1.43-1.14,.88-.94,1.85-2.16,2.88-3.64,1.04-1.5,2.11-3.17,3.17-4.97,1.07-1.82,2.09-3.61,3.05-5.32s1.79-3.25,2.51-4.6c0,0,1.2-2.26,1.48-2.79,.04-.19,.14-.39,.31-.6l.18-.36c.24-.43,.43-.75,.6-1.01,.24-.37,.74-.8,1.73-.8,.84,0,1.35,.34,1.64,.62,.3,.3,.55,.66,.76,1.07,.15,.3,.14,.66-.03,.95-.27,.46-.57,1.02-.9,1.68-.34,.67-.66,1.35-.98,2.02-.81,1.59-1.68,3.3-2.62,5.16-.94,1.86-1.96,3.75-3.02,5.62-1.06,1.87-2.2,3.7-3.37,5.46-1.18,1.78-2.42,3.38-3.66,4.76-1.27,1.42-2.58,2.57-3.89,3.41-1.4,.9-2.83,1.36-4.26,1.36-1.54,0-2.86-.24-3.92-.72-1.09-.49-1.97-1.16-2.63-2.01-.64-.82-1.12-1.81-1.41-2.94-.28-1.07-.42-2.27-.42-3.55v-.84c0-.37,.02-.72,.07-1.04,.16-1.56,.48-3.28,.95-5.09,.46-1.76,.98-3.59,1.54-5.44,.56-1.85,1.18-3.69,1.85-5.49,.66-1.78,1.29-3.46,1.89-5.02l2.12-5.75c.68-1.85,.91-2.84,.98-3.37-.34,.11-.79,.36-1.38,.85-.89,.74-1.86,1.73-2.87,2.93-1.03,1.23-2.09,2.63-3.15,4.16-1.08,1.55-2.12,3.13-3.1,4.67-1,1.58-1.91,3.07-2.71,4.44-.82,1.41-1.52,2.57-2.08,3.5-.04,.06-.08,.12-.13,.17l-.65,1.13c-.01,.06-.03,.12-.05,.18-.65,1.58-1.22,3.41-1.69,5.45-.47,2.05-.78,4.01-.94,5.83-.04,.32-.06,.58-.06,.84v.93c0,.9,.06,1.67,.16,2.29,.11,.65,.23,1.18,.34,1.59,.14,.41,.22,.79,.22,1.1s-.11,1.84-2.32,1.84Z"/><path class="cls-1" d="M157.58,35.97c1.12,0,2.04,.19,2.76,.57,.72,.38,1.29,.9,1.71,1.56,.42,.66,.69,1.45,.81,2.37,.12,.92,.14,1.92,.06,3-.2,2.24-.72,4.75-1.56,7.53-.84,2.78-1.78,5.57-2.82,8.37-.88,2.56-1.7,5.08-2.46,7.56-.76,2.48-1.24,4.58-1.44,6.3,0,.4,0,.87,.03,1.41,.02,.54,.07,1.05,.15,1.53,.08,.48,.22,.88,.42,1.2,.2,.32,.46,.48,.78,.48,.56,0,1.3-.49,2.22-1.47,.92-.98,1.91-2.23,2.97-3.75,1.06-1.52,2.13-3.2,3.21-5.04s2.1-3.62,3.06-5.34,1.8-3.26,2.52-4.62c.72-1.36,1.24-2.34,1.56-2.94,0-.12,.06-.24,.18-.36l.24-.48c.2-.36,.38-.66,.54-.9,.16-.24,.46-.36,.9-.36,.4,0,.71,.11,.93,.33,.22,.22,.41,.49,.57,.81-.28,.48-.59,1.06-.93,1.74-.34,.68-.67,1.36-.99,2.04-.8,1.56-1.67,3.27-2.61,5.13-.94,1.86-1.94,3.72-3,5.58-1.06,1.86-2.17,3.66-3.33,5.4-1.16,1.74-2.35,3.29-3.57,4.65-1.22,1.36-2.45,2.44-3.69,3.24-1.24,.8-2.48,1.2-3.72,1.2-1.4,0-2.57-.21-3.51-.63-.94-.42-1.69-.99-2.25-1.71-.56-.72-.97-1.58-1.23-2.58-.26-1-.39-2.1-.39-3.3v-.84c0-.32,.02-.62,.06-.9,.16-1.56,.47-3.22,.93-4.98,.46-1.76,.97-3.56,1.53-5.4,.56-1.84,1.17-3.65,1.83-5.43,.66-1.78,1.29-3.45,1.89-5.01,.8-2.16,1.51-4.08,2.13-5.76,.62-1.68,.97-2.92,1.05-3.72,.04-.72-.14-1.08-.54-1.08-.72,0-1.55,.39-2.49,1.17-.94,.78-1.94,1.8-3,3.06-1.06,1.26-2.13,2.67-3.21,4.23-1.08,1.56-2.12,3.13-3.12,4.71-1,1.58-1.91,3.07-2.73,4.47-.82,1.4-1.51,2.56-2.07,3.48v-.06l-.96,1.68h.06c-.68,1.64-1.26,3.51-1.74,5.61-.48,2.1-.8,4.09-.96,5.97-.04,.32-.06,.63-.06,.93v.93c0,.96,.06,1.78,.18,2.46s.24,1.24,.36,1.68c.12,.36,.18,.64,.18,.84,0,.56-.44,.84-1.32,.84-1.44,0-2.64-.29-3.6-.87s-1.71-1.34-2.25-2.28c-.54-.94-.92-2.01-1.14-3.21-.22-1.2-.33-2.42-.33-3.66,0-.4,.01-.8,.03-1.2,.02-.4,.05-.82,.09-1.26,.12-1.32,.29-2.7,.51-4.14,.22-1.44,.48-2.89,.78-4.35s.63-2.89,.99-4.29c.36-1.4,.7-2.74,1.02-4.02,.56-2.16,1.05-4.18,1.47-6.06,.42-1.88,.69-3.5,.81-4.86,.04-.64,.03-1.2-.03-1.68-.06-.48-.13-.92-.21-1.32-.04-.2-.07-.38-.09-.54-.02-.16-.03-.32-.03-.48,.04-.56,.29-.94,.75-1.14,.46-.2,.97-.3,1.53-.3,1.52,0,2.74,.25,3.66,.75,.92,.5,1.63,1.15,2.13,1.95,.5,.8,.82,1.69,.96,2.67,.14,.98,.17,1.97,.09,2.97-.08,1.08-.23,2.17-.45,3.27-.22,1.1-.47,2.13-.75,3.09-.12,.44-.23,.86-.33,1.26-.1,.4-.19,.78-.27,1.14,.48-.68,.95-1.4,1.41-2.16,.46-.76,.97-1.54,1.53-2.34,1.08-1.68,2.2-3.37,3.36-5.07,1.16-1.7,2.38-3.24,3.66-4.62,1.28-1.38,2.63-2.5,4.05-3.36,1.42-.86,2.93-1.29,4.53-1.29m-20.52,28.14h0m20.52-30.14c-1.96,0-3.83,.53-5.57,1.58-1.57,.95-3.08,2.2-4.48,3.71-1.34,1.45-2.64,3.08-3.85,4.85-.27,.4-.54,.79-.81,1.19,.02-.84-.03-1.68-.15-2.51-.18-1.25-.6-2.41-1.24-3.45-.68-1.09-1.65-1.98-2.87-2.65-1.22-.66-2.77-.99-4.62-.99-.83,0-1.62,.16-2.33,.47-1.14,.5-1.85,1.53-1.95,2.83,0,.05,0,.09,0,.14,0,.25,.02,.5,.05,.74,.02,.19,.06,.42,.11,.68,.07,.35,.13,.75,.19,1.18,.04,.35,.05,.78,.02,1.28-.11,1.26-.37,2.8-.77,4.57-.41,1.84-.9,3.85-1.45,6-.32,1.29-.66,2.63-1.02,4.02-.37,1.43-.71,2.9-1.01,4.39-.3,1.48-.57,2.98-.8,4.45-.23,1.48-.4,2.91-.52,4.26-.04,.47-.07,.91-.1,1.34-.02,.44-.03,.87-.03,1.3,0,1.35,.12,2.7,.36,4.02,.26,1.42,.72,2.72,1.37,3.85,.71,1.23,1.7,2.24,2.95,3,1.27,.77,2.83,1.16,4.63,1.16,2.29,0,3.32-1.43,3.32-2.84,0-.41-.08-.86-.26-1.41-.1-.37-.2-.86-.31-1.45-.1-.56-.15-1.27-.15-2.11v-.93c0-.22,.01-.45,.04-.68,0-.03,0-.05,0-.08,.15-1.78,.46-3.69,.92-5.69,.45-1.95,.98-3.7,1.6-5.2,.04-.09,.08-.19,.11-.29l.52-.91c.06-.07,.12-.15,.17-.24,.57-.93,1.27-2.11,2.09-3.51,.79-1.36,1.7-2.84,2.69-4.41,.97-1.54,2.01-3.1,3.07-4.64,1.04-1.5,2.08-2.88,3.1-4.08,.61-.72,1.19-1.36,1.75-1.91-.06,.16-.12,.32-.18,.5l-2.13,5.76c-.59,1.54-1.23,3.22-1.89,5.01-.67,1.81-1.3,3.68-1.87,5.54-.57,1.86-1.09,3.71-1.55,5.48-.48,1.84-.81,3.61-.98,5.24-.05,.36-.07,.74-.07,1.14v.84c0,1.37,.15,2.65,.45,3.8,.33,1.26,.86,2.37,1.59,3.3,.76,.98,1.77,1.75,3.01,2.31,1.19,.53,2.65,.8,4.33,.8s3.24-.51,4.8-1.52c1.38-.89,2.76-2.1,4.09-3.58,1.27-1.42,2.53-3.06,3.75-4.88,1.18-1.78,2.33-3.63,3.4-5.52,1.08-1.89,2.1-3.8,3.05-5.67,.94-1.86,1.81-3.56,2.6-5.12,.01-.02,.02-.04,.03-.06,.31-.67,.64-1.33,.97-2,.32-.64,.61-1.18,.87-1.62,.34-.58,.36-1.3,.06-1.91-.26-.51-.57-.96-.94-1.33-.42-.42-1.17-.92-2.35-.92-1.51,0-2.26,.79-2.57,1.25-.19,.28-.4,.63-.62,1.04-.01,.03-.03,.05-.04,.08l-.14,.28c-.17,.23-.3,.49-.39,.76-.28,.53-.69,1.29-1.2,2.27l-.23,.43c-.7,1.33-1.54,2.87-2.5,4.58-.95,1.71-1.97,3.49-3.04,5.3-1.05,1.78-2.1,3.43-3.13,4.91-1,1.43-1.94,2.62-2.79,3.52-.03,.03-.06,.06-.08,.09-.01-.17-.03-.35-.03-.53-.02-.46-.03-.87-.03-1.22,.19-1.57,.65-3.53,1.35-5.83,.74-2.43,1.57-4.96,2.44-7.5,1.03-2.78,2-5.64,2.84-8.44,.87-2.89,1.43-5.56,1.64-7.93,.09-1.24,.07-2.39-.07-3.44-.16-1.21-.53-2.28-1.11-3.18-.61-.95-1.44-1.71-2.46-2.26-1.01-.53-2.25-.8-3.69-.8h0Z"/></g><g><path class="cls-2" d="M175.76,83.89c-1.58,0-2.93-.33-4.02-.98-1.08-.64-1.97-1.54-2.63-2.66-.64-1.08-1.09-2.34-1.35-3.75-.25-1.35-.38-2.84-.38-4.41,0-.49,.01-1,.03-1.51,.02-.52,.05-1.02,.09-1.51,.32-3.97,1.02-7.92,2.07-11.73,1.04-3.77,2.19-7.61,3.43-11.42,0,0,.84-2.76,.84-2.77,.08-.49,.13-.93,.13-1.3,0-.53,.05-.98,.15-1.39,.28-.91,.89-1.49,1.72-1.66,.25-.05,.51-.08,.78-.08,.4,0,.83,.06,1.26,.19,1.89,.67,3.2,1.39,4.07,2.22,.96,.91,1.45,2.11,1.45,3.55,0,.62-.08,1.32-.23,2.06-.15,.71-.35,1.48-.59,2.31-.4,1.28-.85,2.83-1.34,4.63-.49,1.78-.98,3.71-1.46,5.73-.47,2-.91,4.01-1.28,5.98-.37,1.97-.66,3.8-.86,5.45-.04,.36-.07,.78-.08,1.21-.02,.45-.03,.82-.03,1.13,0,1.29,.12,2.33,.37,3.08,.21,.64,.44,.66,.55,.66,.05,0,.45-.06,1.21-.76,.69-.64,1.45-1.5,2.25-2.56,.81-1.08,1.67-2.34,2.53-3.74,.88-1.41,1.76-2.9,2.62-4.41,.86-1.5,1.7-3.03,2.51-4.54,.8-1.5,1.52-2.86,2.15-4.1,.52-.97,.97-1.81,1.35-2.55,.41-.79,.77-1.42,1.11-1.93,.1-.14,.23-.26,.38-.34,.56-.28,.98-.41,1.35-.41,.89,0,1.69,.57,2.36,1.68,.18,.3,.19,.67,.03,.98l-.66,1.26c-.79,1.58-1.69,3.39-2.69,5.41-1,2.02-2.11,4.09-3.3,6.17-1.19,2.07-2.44,4.11-3.72,6.08-1.3,1.99-2.61,3.78-3.91,5.32-1.33,1.58-2.68,2.86-4.02,3.83-1.45,1.04-2.88,1.57-4.24,1.57Zm6.06-46.5c-1.25,0-2.34-.5-3.26-1.49-.91-.98-1.32-2.47-1.22-4.42,.05-.75,.21-1.5,.48-2.24,.27-.74,.61-1.41,1.02-2,.44-.63,.96-1.14,1.57-1.53,.67-.42,1.38-.64,2.13-.64,.7,0,1.4,.21,2.1,.62,.67,.4,1.29,1.03,1.85,1.87,.52,.94,.86,1.75,1.06,2.48,.21,.76,.29,1.49,.24,2.16-.15,1.68-.87,2.98-2.16,3.89-1.21,.86-2.49,1.3-3.82,1.3Z"/><path class="cls-1" d="M182.54,26.07c.52,0,1.05,.16,1.59,.48,.54,.32,1.05,.84,1.53,1.56,.44,.8,.75,1.53,.93,2.19,.18,.66,.25,1.27,.21,1.83-.12,1.36-.7,2.41-1.74,3.15-1.04,.74-2.12,1.11-3.24,1.11-.96,0-1.8-.39-2.52-1.17-.72-.78-1.04-2.01-.96-3.69,.04-.64,.18-1.29,.42-1.95,.24-.66,.54-1.25,.9-1.77,.36-.52,.79-.94,1.29-1.26,.5-.32,1.03-.48,1.59-.48m-5.91,13.65c.31,0,.64,.05,.99,.15,1.68,.6,2.9,1.26,3.66,1.98,.76,.72,1.14,1.66,1.14,2.82,0,.56-.07,1.18-.21,1.86-.14,.68-.33,1.42-.57,2.22-.4,1.28-.85,2.83-1.35,4.65-.5,1.82-.99,3.74-1.47,5.76s-.91,4.03-1.29,6.03c-.38,2-.67,3.84-.87,5.52-.04,.4-.07,.83-.09,1.29-.02,.46-.03,.85-.03,1.17,0,1.4,.14,2.53,.42,3.39,.28,.86,.76,1.31,1.44,1.35,.56,0,1.21-.34,1.95-1.02,.74-.68,1.53-1.58,2.37-2.7,.84-1.12,1.7-2.39,2.58-3.81,.88-1.42,1.76-2.9,2.64-4.44,.88-1.54,1.72-3.06,2.52-4.56,.8-1.5,1.52-2.87,2.16-4.11,.52-.96,.97-1.81,1.35-2.55,.38-.74,.73-1.35,1.05-1.83,.4-.2,.7-.3,.9-.3,.52,0,1.02,.4,1.5,1.2l-.66,1.26c-.8,1.6-1.7,3.41-2.7,5.43-1,2.02-2.09,4.06-3.27,6.12-1.18,2.06-2.41,4.07-3.69,6.03-1.28,1.96-2.56,3.7-3.84,5.22-1.28,1.52-2.56,2.74-3.84,3.66-1.28,.92-2.5,1.38-3.66,1.38-1.4,0-2.57-.28-3.51-.84-.94-.56-1.7-1.33-2.28-2.31-.58-.98-.99-2.12-1.23-3.42-.24-1.3-.36-2.71-.36-4.23,0-.48,.01-.97,.03-1.47,.02-.5,.05-.99,.09-1.47,.32-3.92,1-7.77,2.04-11.55,1.04-3.78,2.18-7.57,3.42-11.37l.84-2.76v.06c.12-.64,.18-1.2,.18-1.68,0-.44,.04-.82,.12-1.14,.16-.52,.48-.83,.96-.93,.18-.04,.37-.06,.57-.06m5.91-15.65c-.94,0-1.84,.27-2.66,.79-.73,.47-1.35,1.07-1.86,1.81-.46,.66-.84,1.41-1.14,2.23-.3,.84-.49,1.68-.54,2.51-.11,2.25,.39,3.98,1.49,5.17,1.09,1.19,2.47,1.81,3.99,1.81s3.02-.5,4.4-1.48c1.51-1.08,2.4-2.67,2.57-4.6,.06-.82-.03-1.66-.27-2.53-.22-.82-.59-1.68-1.11-2.63-.03-.05-.06-.1-.09-.15-.64-.97-1.37-1.7-2.17-2.17-.86-.51-1.74-.76-2.61-.76h0Zm-5.91,13.65c-.33,0-.66,.03-.98,.1-1.2,.25-2.09,1.09-2.47,2.3,0,.03-.02,.06-.03,.1-.12,.48-.18,1.02-.18,1.63,0,.3-.03,.66-.1,1.07l-.83,2.73c-1.23,3.78-2.39,7.64-3.43,11.42-1.07,3.88-1.78,7.89-2.1,11.92-.04,.5-.07,1.02-.1,1.55-.02,.53-.03,1.05-.03,1.55,0,1.63,.13,3.18,.39,4.59,.28,1.53,.78,2.9,1.48,4.08,.75,1.27,1.75,2.28,2.98,3.01,1.25,.74,2.77,1.12,4.53,1.12,1.58,0,3.21-.59,4.83-1.76,1.41-1.01,2.82-2.36,4.2-4,1.32-1.57,2.66-3.39,3.98-5.42,1.29-1.98,2.56-4.04,3.75-6.13,1.2-2.1,2.32-4.19,3.33-6.23,1-2.02,1.9-3.82,2.7-5.42l.64-1.23c.32-.62,.3-1.36-.06-1.96-1.08-1.79-2.34-2.17-3.21-2.17-.54,0-1.09,.16-1.8,.51-.31,.16-.57,.39-.77,.68-.36,.54-.74,1.2-1.17,2.03-.38,.73-.82,1.57-1.33,2.51-.65,1.27-1.37,2.63-2.17,4.12-.8,1.5-1.64,3.02-2.49,4.51-.86,1.5-1.73,2.98-2.6,4.38-.85,1.37-1.68,2.6-2.48,3.66-.76,1.02-1.48,1.83-2.12,2.43-.08,.08-.16,.14-.23,.2-.15-.63-.23-1.45-.23-2.44,0-.3,0-.66,.03-1.08,.02-.42,.05-.82,.08-1.18,.19-1.59,.47-3.4,.84-5.34,.37-1.96,.8-3.96,1.27-5.94,.48-2.01,.97-3.92,1.45-5.69,.49-1.78,.94-3.33,1.33-4.58,.26-.87,.47-1.68,.62-2.41,.17-.81,.25-1.57,.25-2.26,0-1.7-.61-3.18-1.76-4.27-.97-.92-2.4-1.71-4.36-2.41-.04-.01-.08-.03-.13-.04-.52-.15-1.04-.22-1.54-.22h0Z"/></g><g><path class="cls-2" d="M192.38,86.71c-1.39,0-2.7-.13-3.89-.37-1.24-.26-2.33-.67-3.25-1.21-.96-.58-1.71-1.32-2.24-2.22-.54-.93-.77-2.03-.67-3.27,.12-.82,.49-1.56,1.11-2.29,.87-1.01,1.82-1.22,2.47-1.22,.96,0,1.66,.57,1.82,1.48,.1,.52,.12,1.08,.07,1.64,0,.33,.09,.65,.25,.88,.19,.25,.44,.44,.77,.57,.41,.16,.87,.27,1.38,.32,.32,.03,.65,.05,.97,.05,.22,0,.44,0,.66-.02,2.94-.11,4.96-.98,6.23-2.66,1.31-1.75,2.03-4.2,2.14-7.31,0-.97-.14-2.12-.43-3.38-.29-1.3-.68-2.67-1.14-4.08-.46-1.39-1.02-2.79-1.64-4.17-.33-.73-.69-1.43-1.06-2.1l-1.86,4.19c-.16,.37-.53,.59-.91,.59-.11,0-.23-.02-.34-.06l-2.16-.78c-.26-.09-.47-.29-.58-.54-.11-.25-.11-.54,0-.79l2.95-6.98c-1.3-1.77-2.38-3.82-3.21-6.1-.92-2.5-1.38-5.08-1.38-7.67,0-2.03,.35-4.02,1.05-5.93,.72-1.97,1.99-3.69,3.76-5.12,.78-.7,1.76-1.25,2.87-1.61,1.08-.35,2.18-.53,3.28-.53,.76,0,1.51,.09,2.22,.27,.77,.19,1.45,.51,2.04,.95,.6,.45,1.09,1.04,1.46,1.75,.37,.72,.56,1.57,.56,2.53,0,1.35-.3,2.89-.9,4.59-.56,1.61-1.24,3.35-2,5.16-.35,.9-.73,1.83-1.11,2.75-.31,.74-.6,1.51-.87,2.29,1.46,2.18,2.87,4.42,4.19,6.66,1.41,2.37,2.67,4.7,3.76,6.91,1.09,2.22,1.98,4.34,2.63,6.3,.29,.88,.53,1.72,.7,2.5,.41-.65,.81-1.31,1.21-1.98,.88-1.47,1.72-2.94,2.54-4.39,.81-1.44,1.56-2.83,2.23-4.14,.66-1.27,1.22-2.4,1.69-3.37,.06-.17,.15-.3,.23-.4l.33-.66c.01-.1,.04-.2,.09-.29,.23-.46,.44-.82,.66-1.11,.26-.35,.77-.76,1.73-.76,.66,0,1.85,.24,2.49,1.83,.11,.27,.09,.56-.03,.82l-.36,.72c-.05,.1-.11,.19-.19,.26l-.07,.07c-.58,1.13-1.25,2.44-1.99,3.93-.79,1.57-1.65,3.24-2.56,4.94-.92,1.72-1.92,3.49-2.96,5.26-1.05,1.77-2.13,3.49-3.21,5.09-1.09,1.62-2.23,3.12-3.37,4.44-1.16,1.35-2.3,2.46-3.39,3.29-1.04,.74-2.18,1.38-3.42,1.92-1.21,.53-2.47,.99-3.75,1.36-1.27,.37-2.57,.66-3.87,.87-1.31,.21-2.56,.31-3.73,.31Zm8.12-53.87c-.05,.05-.12,.11-.19,.2-.35,.42-.69,1.02-1.01,1.78-.34,.8-.62,1.73-.85,2.74-.22,1-.34,2.02-.34,3.02,0,.07,0,.15,0,.22,.18-.45,.37-.91,.56-1.4,.4-1.01,.77-2.02,1.09-2.98,.31-.92,.54-1.76,.69-2.49,.16-.77,.08-1.01,.08-1.02-.01-.03-.02-.05-.03-.08Z"/><path class="cls-1" d="M199.4,27.03c.68,0,1.34,.08,1.98,.24,.64,.16,1.2,.42,1.68,.78,.48,.36,.87,.83,1.17,1.41,.3,.58,.45,1.27,.45,2.07,0,1.24-.28,2.66-.84,4.26-.56,1.6-1.22,3.3-1.98,5.1-.36,.92-.73,1.84-1.11,2.76-.38,.92-.73,1.86-1.05,2.82,1.56,2.32,3.04,4.66,4.44,7.02,1.4,2.36,2.64,4.64,3.72,6.84,1.08,2.2,1.94,4.26,2.58,6.18,.64,1.92,.98,3.58,1.02,4.98,.92-1.36,1.82-2.78,2.7-4.26,.88-1.48,1.73-2.95,2.55-4.41,.82-1.46,1.57-2.85,2.25-4.17,.68-1.32,1.26-2.48,1.74-3.48,0-.04,.04-.1,.12-.18,.04-.04,.06-.08,.06-.12l.48-.96h-.06c.2-.4,.39-.72,.57-.96,.18-.24,.49-.36,.93-.36,.72,0,1.24,.4,1.56,1.2l-.36,.72-.18,.18c-.6,1.16-1.29,2.52-2.07,4.08-.78,1.56-1.63,3.2-2.55,4.92-.92,1.72-1.9,3.46-2.94,5.22-1.04,1.76-2.1,3.44-3.18,5.04-1.08,1.6-2.18,3.05-3.3,4.35-1.12,1.3-2.2,2.35-3.24,3.15-.96,.68-2.03,1.28-3.21,1.8-1.18,.52-2.39,.96-3.63,1.32-1.24,.36-2.49,.64-3.75,.84-1.26,.2-2.45,.3-3.57,.3-1.32,0-2.55-.12-3.69-.35-1.14-.24-2.12-.6-2.94-1.09-.82-.49-1.45-1.11-1.89-1.87-.44-.75-.62-1.65-.54-2.69,.08-.56,.37-1.13,.87-1.71,.5-.58,1.07-.87,1.71-.87,.48,0,.76,.22,.84,.66,.08,.44,.1,.9,.06,1.38,0,.64,.15,1.16,.45,1.56,.3,.4,.7,.7,1.2,.9,.5,.2,1.05,.33,1.65,.39,.36,.04,.71,.05,1.07,.05,.24,0,.49,0,.73-.02,3.2-.12,5.52-1.14,6.96-3.06s2.22-4.54,2.34-7.87c0-1.08-.15-2.29-.45-3.63-.3-1.34-.69-2.73-1.17-4.17s-1.04-2.86-1.68-4.26c-.64-1.4-1.34-2.68-2.1-3.84l-2.64,5.95-2.16-.78,3.18-7.51c-1.4-1.8-2.54-3.9-3.42-6.31-.88-2.4-1.32-4.84-1.32-7.33,0-1.92,.33-3.78,.99-5.59,.66-1.8,1.81-3.36,3.45-4.69,.72-.64,1.57-1.12,2.55-1.44,.98-.32,1.97-.48,2.97-.48m-1.56,17.1l.6-1.44c.36-.88,.75-1.85,1.17-2.91,.42-1.06,.79-2.07,1.11-3.03,.32-.96,.56-1.83,.72-2.61,.16-.78,.16-1.33,0-1.65h.06c-.24-.48-.5-.74-.78-.78-.03,0-.05,0-.08,0-.34,0-.7,.23-1.09,.69-.42,.5-.81,1.18-1.17,2.04-.36,.86-.66,1.83-.9,2.91-.24,1.08-.36,2.16-.36,3.24,0,1.28,.24,2.46,.72,3.54m1.56-19.1c-1.21,0-2.42,.19-3.59,.58-1.22,.4-2.31,1.01-3.22,1.82-1.9,1.54-3.26,3.4-4.04,5.52-.74,2.02-1.11,4.13-1.11,6.27,0,2.71,.49,5.4,1.44,8.02,.8,2.18,1.81,4.15,3.01,5.89l-2.74,6.46c-.21,.51-.21,1.08,0,1.58,.22,.5,.64,.89,1.15,1.08l2.16,.78c.22,.08,.45,.12,.68,.12,.77,0,1.5-.45,1.83-1.19l1.01-2.27c.03,.06,.06,.12,.09,.19,.61,1.34,1.15,2.71,1.6,4.06,.46,1.37,.83,2.71,1.12,3.98,.26,1.18,.4,2.24,.4,3.16-.11,2.88-.76,5.13-1.94,6.71-1.07,1.43-2.85,2.17-5.43,2.26-.02,0-.04,0-.06,0-.2,.01-.4,.02-.6,.02-.29,0-.58-.01-.87-.04-.41-.04-.79-.13-1.1-.26-.21-.08-.29-.17-.34-.24,0,0-.04-.08-.05-.3,.04-.62,.01-1.22-.09-1.8-.25-1.4-1.36-2.3-2.81-2.3-.86,0-2.11,.27-3.22,1.56-.75,.87-1.2,1.79-1.34,2.73,0,.04-.01,.09-.01,.13-.11,1.45,.16,2.75,.81,3.85,.61,1.04,1.48,1.91,2.59,2.57,1.01,.61,2.21,1.06,3.56,1.34,1.26,.26,2.64,.4,4.1,.4,1.22,0,2.53-.11,3.88-.32,1.35-.21,2.69-.52,4-.9,1.32-.38,2.63-.86,3.88-1.41,1.3-.57,2.5-1.24,3.56-2,.02-.01,.04-.03,.06-.05,1.14-.88,2.33-2.03,3.54-3.43,1.17-1.36,2.33-2.88,3.44-4.54,1.09-1.62,2.18-3.35,3.24-5.14,1.05-1.78,2.05-3.56,2.98-5.3,.92-1.72,1.79-3.39,2.58-4.97,.71-1.43,1.35-2.69,1.92-3.78,.13-.14,.25-.3,.33-.48l.36-.72c.26-.51,.28-1.11,.07-1.64-.63-1.56-1.87-2.45-3.42-2.45-1.44,0-2.21,.73-2.53,1.16-.26,.34-.5,.76-.76,1.27-.07,.14-.12,.29-.16,.43l-.22,.45c-.13,.17-.23,.35-.3,.54-.46,.95-1.01,2.06-1.65,3.3-.67,1.3-1.42,2.68-2.22,4.11-.8,1.42-1.64,2.88-2.52,4.36-.03-.11-.07-.22-.11-.32-.67-2-1.57-4.17-2.68-6.43-1.1-2.24-2.37-4.58-3.8-6.98-1.25-2.11-2.58-4.22-3.95-6.28,.22-.6,.44-1.19,.68-1.77,.38-.92,.75-1.85,1.11-2.77,.77-1.82,1.45-3.57,2.01-5.19,.63-1.81,.95-3.46,.95-4.92,0-1.12-.23-2.12-.67-2.99-.44-.85-1.03-1.55-1.74-2.09-.7-.52-1.5-.9-2.4-1.12-.8-.2-1.63-.3-2.47-.3h0Zm1.81,8.52h0Z"/></g><g><path class="cls-2" d="M229.76,85.45c-2.25,0-4.22-.49-5.83-1.46-1.59-.96-2.9-2.25-3.88-3.84-.96-1.55-1.66-3.35-2.08-5.36-.41-1.96-.62-4.04-.62-6.18v-1.53c0-.54,.04-1.12,.13-1.73,0-.02,0-.04,0-.05,.21-2.23,.62-4.52,1.21-6.81,.61-2.34,1.4-4.65,2.36-6.86,.96-2.22,2.08-4.33,3.35-6.27,1.27-1.95,2.71-3.7,4.25-5.18,1.57-1.5,3.27-2.71,5.06-3.57,1.83-.88,3.76-1.33,5.74-1.33s3.67,.43,5.19,1.26c1.49,.82,2.77,1.91,3.79,3.23,1.01,1.31,1.77,2.82,2.27,4.46,.49,1.64,.7,3.34,.61,5.05-.26,2.46-1.13,4.7-2.59,6.72-1.41,1.95-3.14,3.7-5.13,5.19-1.97,1.48-4.13,2.73-6.41,3.72-2.05,.88-4.04,1.56-5.95,2.02-.09,.46-.17,.93-.24,1.4-.1,.71-.19,1.46-.27,2.24-.04,.31-.06,.59-.06,.89v.99c0,.82,.07,1.62,.2,2.38,.12,.71,.34,1.35,.64,1.91,.28,.52,.67,.93,1.17,1.26,.48,.32,1.12,.51,1.88,.58,1.32-.04,2.54-.46,3.73-1.27,1.28-.87,2.5-1.95,3.62-3.22,1.14-1.3,2.2-2.71,3.15-4.2,.97-1.53,1.84-2.94,2.59-4.2,.04-.07,.09-.13,.14-.18,.89-1.56,1.73-3.13,2.5-4.65,.82-1.62,1.57-3.09,2.25-4.42,.33-.61,.68-1.29,1.08-2.05,.41-.77,.77-1.44,1.1-2.01,.11-.19,.28-.34,.48-.43,.76-.32,1.04-.38,1.28-.38,.62,0,1.17,.21,1.58,.62,.3,.3,.55,.66,.76,1.07,.14,.27,.14,.59,.02,.86l-.6,1.32c-.73,1.49-1.63,3.29-2.69,5.35-1.07,2.07-2.25,4.24-3.53,6.44-1.07,1.91-2.29,3.95-3.62,6.06-1.35,2.15-2.92,4.14-4.67,5.9-1.77,1.79-3.81,3.28-6.08,4.45-2.31,1.19-4.98,1.79-7.93,1.79Zm14.64-41.04c-.52,0-1.15,.29-1.87,.86-.83,.66-1.68,1.56-2.54,2.65-.88,1.13-1.76,2.42-2.61,3.81-.86,1.41-1.64,2.83-2.32,4.24-.68,1.41-1.3,2.77-1.84,4.06-.23,.56-.43,1.08-.6,1.54,.9-.22,1.88-.54,2.93-.97,1.72-.69,3.4-1.6,4.99-2.71,1.57-1.1,2.95-2.38,4.08-3.82,1.09-1.38,1.69-2.83,1.83-4.45,.14-1.3-.13-2.65-.8-4.03-.4-.77-.83-1.18-1.26-1.18Z"/><path class="cls-1" d="M239.48,36.27c1.76,0,3.33,.38,4.71,1.14,1.38,.76,2.54,1.75,3.48,2.97,.94,1.22,1.64,2.6,2.1,4.14,.46,1.54,.65,3.11,.57,4.71-.24,2.24-1.04,4.3-2.4,6.18-1.36,1.88-3,3.54-4.92,4.98s-3.99,2.64-6.21,3.6c-2.22,.96-4.35,1.66-6.39,2.1-.16,.68-.29,1.38-.39,2.1-.1,.72-.19,1.48-.27,2.28-.04,.32-.06,.65-.06,.99v.99c0,.88,.07,1.73,.21,2.55,.14,.82,.39,1.56,.75,2.22,.36,.66,.86,1.2,1.5,1.62,.64,.42,1.44,.67,2.4,.75,1.52-.04,2.96-.52,4.32-1.44,1.36-.92,2.63-2.05,3.81-3.39,1.18-1.34,2.26-2.78,3.24-4.32,.98-1.54,1.85-2.95,2.61-4.23v.06c.96-1.68,1.85-3.33,2.67-4.95,.82-1.62,1.57-3.09,2.25-4.41,.32-.6,.68-1.28,1.08-2.04,.4-.76,.76-1.42,1.08-1.98,.48-.2,.78-.3,.9-.3,.36,0,.65,.11,.87,.33,.22,.22,.41,.49,.57,.81l-.6,1.32c-.72,1.48-1.61,3.25-2.67,5.31-1.06,2.06-2.23,4.19-3.51,6.39-1.08,1.92-2.28,3.93-3.6,6.03s-2.83,4.01-4.53,5.73c-1.7,1.72-3.64,3.14-5.82,4.26-2.18,1.12-4.67,1.68-7.47,1.68-2.08,0-3.85-.44-5.31-1.32-1.46-.88-2.64-2.05-3.54-3.51-.9-1.46-1.55-3.14-1.95-5.04s-.6-3.89-.6-5.97v-1.53c0-.5,.04-1.03,.12-1.59v.06c.2-2.24,.6-4.51,1.2-6.81,.6-2.3,1.37-4.54,2.31-6.72,.94-2.18,2.03-4.22,3.27-6.12,1.24-1.9,2.61-3.57,4.11-5.01s3.1-2.57,4.8-3.39c1.7-.82,3.47-1.23,5.31-1.23m-8.28,26.58c1.36-.16,2.94-.6,4.74-1.32,1.8-.72,3.53-1.66,5.19-2.82,1.66-1.16,3.09-2.5,4.29-4.02,1.2-1.52,1.88-3.18,2.04-4.98,.16-1.48-.14-3-.9-4.56-.6-1.16-1.32-1.74-2.16-1.74-.76,0-1.59,.36-2.49,1.08s-1.8,1.66-2.7,2.82c-.9,1.16-1.79,2.46-2.67,3.9-.88,1.44-1.67,2.88-2.37,4.32-.7,1.44-1.32,2.81-1.86,4.11s-.91,2.37-1.11,3.21m8.28-28.58c-2.14,0-4.21,.48-6.18,1.43-1.88,.91-3.67,2.17-5.32,3.75-1.6,1.54-3.08,3.34-4.4,5.36-1.3,1.99-2.45,4.15-3.43,6.42-.98,2.26-1.79,4.62-2.41,7.01-.61,2.32-1.02,4.65-1.24,6.92,0,.02,0,.03,0,.05-.09,.65-.14,1.28-.14,1.87v1.53c0,2.21,.22,4.35,.64,6.38,.44,2.12,1.19,4.03,2.21,5.68,1.06,1.73,2.48,3.13,4.21,4.17,1.77,1.07,3.9,1.61,6.34,1.61,3.11,0,5.93-.64,8.38-1.9,2.36-1.21,4.49-2.77,6.33-4.63,1.79-1.81,3.41-3.86,4.8-6.07,1.33-2.12,2.56-4.18,3.65-6.11,1.27-2.19,2.47-4.37,3.55-6.46,1.07-2.07,1.97-3.87,2.69-5.35,0-.02,.02-.03,.02-.05l.6-1.32c.25-.55,.24-1.18-.03-1.72-.26-.51-.57-.96-.94-1.33-.6-.6-1.39-.92-2.29-.92-.43,0-.86,.11-1.67,.45-.41,.17-.75,.47-.97,.85-.33,.58-.71,1.27-1.11,2.04-.4,.76-.76,1.43-1.08,2.03-.7,1.35-1.45,2.82-2.27,4.45-.75,1.48-1.56,3-2.43,4.52-.07,.08-.13,.16-.18,.25-.74,1.25-1.61,2.66-2.58,4.18-.92,1.44-1.95,2.81-3.05,4.07-1.06,1.21-2.22,2.24-3.43,3.05-1.01,.69-2.04,1.05-3.14,1.09-.57-.06-1.03-.2-1.36-.42-.36-.24-.64-.54-.84-.91-.25-.46-.43-1-.53-1.6-.12-.7-.18-1.45-.18-2.22v-.99c0-.26,.01-.51,.04-.74,0-.02,0-.03,0-.05,.08-.77,.16-1.51,.26-2.2,.03-.24,.07-.49,.11-.73,1.77-.46,3.61-1.1,5.48-1.91,2.36-1.02,4.58-2.31,6.62-3.84,2.07-1.55,3.87-3.37,5.34-5.41,1.56-2.16,2.49-4.56,2.77-7.14,0-.04,0-.08,0-.11,.09-1.82-.13-3.63-.65-5.38-.53-1.77-1.35-3.38-2.43-4.79-1.11-1.43-2.49-2.61-4.1-3.5-1.67-.92-3.58-1.39-5.67-1.39h0Zm-5.15,25.73c.49-1.15,1.04-2.36,1.64-3.6,.67-1.38,1.44-2.77,2.28-4.15,.83-1.36,1.69-2.61,2.54-3.72,.8-1.03,1.6-1.87,2.37-2.48,.63-.5,1.01-.61,1.17-.64,.07,.06,.24,.24,.45,.65,.58,1.18,.81,2.32,.69,3.43-.13,1.46-.66,2.74-1.62,3.96-1.07,1.36-2.37,2.58-3.87,3.62-1.53,1.07-3.14,1.94-4.79,2.6-.3,.12-.59,.23-.87,.33h0Z"/></g><g><path class="cls-2" d="M306.08,112.69c-2.37,0-4.68-.23-6.86-.68-3.8-.78-7.33-2.06-10.48-3.83-3.17-1.77-5.9-3.99-8.1-6.59-2.21-2.61-3.9-5.64-5.02-9-1.12-3.37-1.52-7.09-1.19-11.05,.12-1.23,.3-2.45,.52-3.67,.23-1.21,.55-2.48,.96-3.75,.91-2.78,2.28-5.37,4.06-7.71,1.77-2.32,3.77-4.34,5.95-6.01,2.18-1.67,4.49-2.99,6.87-3.94,2.41-.96,4.72-1.45,6.88-1.45,1.51,0,2.93,.24,4.22,.72,1.33,.5,2.49,1.31,3.44,2.42,.94,1.1,1.62,2.5,2.04,4.16,.22,.9,.36,1.9,.41,3,.4-2.53,.78-5.12,1.14-7.72,.44-3.18,.84-6.3,1.2-9.25,.32-2.49,.63-4.87,.93-7.15,.3-2.25,.6-4.4,.9-6.38,.3-1.99,.62-3.8,.94-5.38,.13-.64,.26-1.24,.4-1.8-1.44,.74-2.95,1.44-4.53,2.09-2.41,.99-4.81,1.64-7.13,1.93-.51,.05-.99,.07-1.44,.07-.84,0-1.66-.08-2.42-.23-1.2-.24-2.25-.65-3.13-1.22-.93-.59-1.64-1.37-2.12-2.31-.48-.94-.68-2.04-.59-3.26,.09-.79,.3-1.62,.63-2.49,.33-.89,.88-1.83,1.62-2.78,1.02-1.43,2.35-2.84,3.93-4.17,1.55-1.3,3.16-2.51,4.81-3.58,1.64-1.07,3.27-2.04,4.85-2.87,1.57-.83,2.92-1.49,4.02-1.98,1.94-.85,4.06-1.65,6.31-2.38,2.24-.73,4.56-1.36,6.9-1.88,2.35-.53,4.74-.93,7.1-1.19,2.06-.23,4.08-.34,6-.34,.29,0,.58,0,.88,0,3.28,.08,6.43,.56,9.35,1.42,2.98,.88,5.63,2.28,7.87,4.19,2.25,1.91,4.04,4.39,5.31,7.36,1.27,2.96,1.89,6.54,1.85,10.66,0,.29,0,.63-.03,1.03-.02,.41-.05,.78-.1,1.12-.24,3.11-.94,6.26-2.06,9.32-1.13,3.06-2.69,5.92-4.64,8.5-1.96,2.59-4.38,4.88-7.2,6.8-2.11,1.43-4.47,2.6-7.04,3.47,3.4,1.66,6.1,3.71,8.04,6.12,2.41,3,3.84,6.29,4.26,9.78,.08,.84,.14,1.7,.16,2.59,.02,.9-.01,1.77-.09,2.61-.33,3.71-1.37,7.25-3.08,10.53-1.7,3.25-3.91,6.28-6.56,9-2.64,2.71-5.68,5.16-9.03,7.29-3.34,2.12-6.86,3.94-10.45,5.39-3.6,1.46-7.28,2.58-10.94,3.35-3.67,.77-7.21,1.16-10.5,1.16Zm-5.52-51c-1.1,0-2.32,.36-3.63,1.08-1.37,.75-2.73,1.78-4.04,3.05-1.32,1.28-2.57,2.8-3.7,4.51-1.13,1.7-2.03,3.51-2.68,5.39-.42,1.3-.79,2.65-1.08,3.99-.29,1.33-.47,2.6-.55,3.78-.23,3.01-.03,5.85,.6,8.46,.63,2.58,1.65,4.89,3.05,6.86,1.39,1.96,3.17,3.58,5.3,4.82,2.13,1.24,4.64,2.05,7.45,2.39,.47,.08,.9,.12,1.31,.14,.42,.02,.85,.03,1.27,.03,2.76,0,5.66-.48,8.6-1.42,2.97-.95,5.91-2.28,8.74-3.96,2.83-1.68,5.54-3.69,8.06-5.97,2.52-2.28,4.76-4.79,6.67-7.43,1.9-2.64,3.44-5.42,4.56-8.27,1.11-2.81,1.69-5.67,1.73-8.5,.04-1.76-.21-3.42-.73-4.94-.51-1.49-1.35-2.82-2.49-3.97s-2.71-2.16-4.6-2.97c-1.92-.82-4.3-1.39-7.07-1.7-.22-.03-.43-.12-.59-.28-.34-.33-.53-.79-.57-1.34-.03-.37,0-.78,.07-1.2,.08-.44,.22-.86,.43-1.25,.24-.45,.55-.8,.93-1.05,.08-.06,.17-.1,.27-.13,3.4-1,6.39-2.39,8.89-4.12,2.5-1.73,4.62-3.73,6.28-5.93,1.67-2.21,2.97-4.6,3.88-7.11,.91-2.53,1.48-5.12,1.72-7.7,.04-.36,.07-.7,.09-1.02,.02-.32,.03-.63,.03-.93,.04-2.14-.19-4.04-.68-5.65-.48-1.6-1.17-2.99-2.03-4.12-.86-1.13-1.91-2.08-3.11-2.81-1.24-.75-2.61-1.34-4.07-1.75-1.95-.57-4.14-.86-6.51-.86-2.55,0-5.28,.33-8.09,.96-2.84,.65-5.6,1.43-8.2,2.34-3.33,1.36-6.24,2.81-8.61,4.31-2.35,1.48-4.1,2.85-5.19,4.06-.58,.66-1.05,1.28-1.37,1.86-.29,.51-.45,.96-.47,1.32-.03,.29,0,.4,.27,.54,.17,.09,.41,.13,.72,.13,.39,0,.87-.07,1.43-.21,.66-.21,1.46-.52,2.33-.9,.89-.39,1.82-.83,2.79-1.3,.96-.47,1.93-.98,2.88-1.53,.98-.56,1.93-1.1,2.85-1.62,1.26-.75,2.52-1.47,3.73-2.14,1.25-.69,2.2-1.16,2.92-1.46,.85-.34,1.68-.61,2.49-.8,.85-.2,1.57-.3,2.21-.3,1.08,0,1.98,.24,2.69,.71,.69,.46,1.24,1.12,1.62,1.95,.34,.76,.57,1.66,.66,2.67,.08,.93,.1,1.97,.06,3.1,0,.04,0,.08-.01,.12l-1.53,9.45c-.58,3.58-1.19,7.31-1.83,11.19-.64,3.88-1.3,7.79-1.98,11.71l-1.92,11.07c-.6,3.46-1.15,6.57-1.65,9.31-.51,2.79-.91,4.87-1.24,6.36,0,.05-.02,.09-.04,.13-.46,1.24-1.01,2.46-1.65,3.62-.67,1.21-1.52,2.28-2.52,3.17-1.02,.91-2.27,1.6-3.7,2.04-.91,.28-1.92,.42-3.03,.42-.65,0-1.34-.05-2.05-.14-.07,0-.15-.03-.21-.05-.85-.31-1.57-.69-2.16-1.12-.86-.63-1.09-1.63-.64-2.7,.05-.53,.24-1.04,.59-1.53,.02-.03,.04-.06,.06-.08,.21-.24,.43-.62,.65-1.1l.74-1.65s.02-.08,.03-.12c.71-2.32,1.36-4.91,1.93-7.71,.25-1.24,.5-2.51,.74-3.81-.46,.5-1.05,.93-1.77,.93s-1.4-.32-1.87-.93c-.15-.19-.22-.43-.21-.68,.11-1.83,.07-3.42-.14-4.7-.2-1.24-.52-2.25-.94-3-.39-.7-.85-1.21-1.37-1.52-.53-.31-1.11-.46-1.77-.46Z"/><path class="cls-1" d="M340.08,2c.29,0,.57,0,.86,0,3.2,.08,6.23,.54,9.09,1.38,2.86,.84,5.36,2.17,7.5,3.99,2.14,1.82,3.82,4.15,5.04,6.99,1.22,2.84,1.81,6.26,1.77,10.26,0,.28,0,.61-.03,.99-.02,.38-.05,.73-.09,1.05-.24,3.08-.91,6.11-2.01,9.09-1.1,2.98-2.6,5.73-4.5,8.25-1.9,2.52-4.22,4.71-6.96,6.57-2.74,1.86-5.87,3.23-9.39,4.11,4.48,1.76,7.87,4.07,10.17,6.93,2.3,2.86,3.65,5.95,4.05,9.27,.08,.8,.13,1.63,.15,2.49,.02,.86-.01,1.69-.09,2.49-.32,3.6-1.31,6.99-2.97,10.17s-3.79,6.1-6.39,8.76c-2.6,2.66-5.55,5.04-8.85,7.14-3.3,2.1-6.73,3.87-10.29,5.31-3.56,1.44-7.15,2.54-10.77,3.3-3.62,.76-7.05,1.14-10.29,1.14-2.32,0-4.54-.22-6.66-.66-3.72-.76-7.12-2-10.2-3.72-3.08-1.72-5.69-3.84-7.83-6.36-2.14-2.52-3.75-5.41-4.83-8.67-1.08-3.26-1.46-6.81-1.14-10.65,.12-1.2,.29-2.39,.51-3.57,.22-1.18,.53-2.39,.93-3.63,.88-2.68,2.18-5.15,3.9-7.41,1.72-2.26,3.64-4.2,5.76-5.82,2.12-1.62,4.33-2.89,6.63-3.81,2.3-.92,4.47-1.38,6.51-1.38,1.4,0,2.69,.22,3.87,.66,1.18,.44,2.19,1.15,3.03,2.13,.84,.98,1.45,2.23,1.83,3.75,.38,1.52,.49,3.36,.33,5.52-.04,.4-.09,.84-.15,1.32s-.13,.94-.21,1.38c-.56,.8-1.06,1.2-1.5,1.2s-.8-.18-1.08-.54c.12-1.92,.07-3.56-.15-4.92-.22-1.36-.57-2.47-1.05-3.33-.48-.86-1.06-1.49-1.74-1.89-.68-.4-1.44-.6-2.28-.6-1.28,0-2.65,.4-4.11,1.2-1.46,.8-2.88,1.87-4.26,3.21-1.38,1.34-2.66,2.9-3.84,4.68-1.18,1.78-2.11,3.65-2.79,5.61-.44,1.36-.81,2.73-1.11,4.11-.3,1.38-.49,2.69-.57,3.93-.24,3.12-.03,6.04,.63,8.76,.66,2.72,1.73,5.12,3.21,7.2,1.48,2.08,3.35,3.78,5.61,5.1,2.26,1.32,4.87,2.16,7.83,2.52,.48,.08,.94,.13,1.38,.15,.44,.02,.88,.03,1.32,.03,2.88,0,5.85-.49,8.91-1.47,3.06-.98,6.04-2.33,8.94-4.05,2.9-1.72,5.64-3.75,8.22-6.09,2.58-2.34,4.85-4.87,6.81-7.59,1.96-2.72,3.52-5.55,4.68-8.49,1.16-2.94,1.76-5.89,1.8-8.85,.04-1.88-.22-3.64-.78-5.28-.56-1.64-1.47-3.09-2.73-4.35-1.26-1.26-2.9-2.32-4.92-3.18-2.02-.86-4.47-1.45-7.35-1.77-.16-.16-.25-.39-.27-.69-.02-.3,0-.62,.06-.96,.06-.34,.17-.66,.33-.96,.16-.3,.36-.53,.6-.69,3.52-1.04,6.58-2.46,9.18-4.26,2.6-1.8,4.77-3.85,6.51-6.15,1.74-2.3,3.08-4.76,4.02-7.38,.94-2.62,1.53-5.27,1.77-7.95,.04-.36,.07-.71,.09-1.05,.02-.34,.03-.67,.03-.99,.04-2.24-.2-4.22-.72-5.94-.52-1.72-1.25-3.2-2.19-4.44-.94-1.24-2.07-2.26-3.39-3.06-1.32-.8-2.76-1.42-4.32-1.86-2.04-.6-4.3-.9-6.78-.9-2.64,0-5.41,.33-8.31,.99-2.9,.66-5.67,1.45-8.31,2.37-3.44,1.4-6.38,2.87-8.82,4.41-2.44,1.54-4.24,2.95-5.4,4.23-.64,.72-1.14,1.4-1.5,2.04-.36,.64-.56,1.22-.6,1.74-.08,.68,.19,1.18,.81,1.5,.31,.16,.7,.24,1.18,.24s1.03-.08,1.67-.24c.76-.24,1.59-.56,2.49-.96,.9-.4,1.84-.84,2.82-1.32,.98-.48,1.96-1,2.94-1.56,.98-.56,1.93-1.1,2.85-1.62,1.28-.76,2.52-1.47,3.72-2.13,1.2-.66,2.14-1.13,2.82-1.41,.8-.32,1.58-.57,2.34-.75,.76-.18,1.42-.27,1.98-.27,.88,0,1.59,.18,2.13,.54,.54,.36,.96,.87,1.26,1.53,.3,.66,.49,1.44,.57,2.34,.08,.9,.1,1.89,.06,2.97-.44,2.72-.95,5.87-1.53,9.45-.58,3.58-1.19,7.31-1.83,11.19s-1.3,7.78-1.98,11.7c-.68,3.92-1.32,7.61-1.92,11.07-.6,3.46-1.15,6.56-1.65,9.3-.5,2.74-.91,4.85-1.23,6.33-.44,1.2-.97,2.36-1.59,3.48-.62,1.12-1.39,2.09-2.31,2.91-.92,.82-2.03,1.43-3.33,1.83-.81,.25-1.72,.38-2.73,.38-.6,0-1.24-.04-1.92-.13-.76-.28-1.4-.61-1.92-.99-.52-.38-.6-.93-.24-1.65,0-.4,.14-.8,.42-1.2,.28-.32,.55-.77,.81-1.35,.26-.58,.55-1.23,.87-1.95l-.06,.06c.72-2.36,1.37-4.96,1.95-7.8,.58-2.84,1.12-5.81,1.62-8.91,.5-3.1,.97-6.24,1.41-9.42,.44-3.18,.84-6.27,1.2-9.27,.32-2.48,.63-4.86,.93-7.14s.6-4.4,.9-6.36c.3-1.96,.61-3.74,.93-5.34,.32-1.6,.66-2.94,1.02-4.02-2,1.16-4.17,2.22-6.51,3.18-2.34,.96-4.63,1.58-6.87,1.86-.45,.04-.89,.06-1.32,.06-.78,0-1.52-.07-2.22-.21-1.08-.22-2.01-.58-2.79-1.08-.78-.5-1.37-1.14-1.77-1.92-.4-.78-.56-1.69-.48-2.73,.08-.68,.27-1.42,.57-2.22,.3-.8,.79-1.64,1.47-2.52,1-1.4,2.26-2.74,3.78-4.02,1.52-1.28,3.09-2.45,4.71-3.51s3.21-2,4.77-2.82,2.88-1.47,3.96-1.95c1.92-.84,3.99-1.62,6.21-2.34,2.22-.72,4.49-1.34,6.81-1.86,2.32-.52,4.65-.91,6.99-1.17,2.03-.23,4-.34,5.89-.34m0-2c-1.97,0-4.02,.12-6.11,.35-2.4,.27-4.82,.67-7.21,1.21-2.37,.53-4.72,1.17-6.99,1.91-2.28,.74-4.43,1.55-6.4,2.41-1.13,.5-2.5,1.18-4.09,2.01-1.61,.85-3.27,1.83-4.93,2.92-1.68,1.1-3.33,2.33-4.9,3.65-1.63,1.37-3.01,2.84-4.1,4.36-.79,1.02-1.37,2.03-1.74,3.01-.36,.95-.59,1.86-.68,2.69,0,.03,0,.05,0,.08-.11,1.41,.12,2.69,.69,3.8,.56,1.1,1.39,2,2.47,2.69,.98,.63,2.15,1.09,3.47,1.36,.83,.17,1.71,.25,2.62,.25,.49,0,1-.02,1.51-.07,.02,0,.04,0,.06,0,2.4-.3,4.89-.97,7.38-1.99,.93-.38,1.84-.78,2.73-1.2-.31,1.55-.61,3.31-.91,5.23-.3,1.99-.61,4.14-.91,6.4-.3,2.28-.61,4.66-.93,7.14-.36,2.97-.76,6.07-1.2,9.25-.11,.81-.23,1.62-.34,2.43-.4-.89-.9-1.69-1.5-2.38-1.06-1.24-2.36-2.15-3.85-2.7-1.4-.52-2.94-.79-4.57-.79-2.29,0-4.73,.51-7.25,1.52-2.46,.98-4.85,2.36-7.1,4.08-2.25,1.72-4.31,3.8-6.14,6.2-1.85,2.43-3.26,5.12-4.21,8-.43,1.33-.76,2.63-1,3.89-.23,1.24-.41,2.5-.53,3.74-.34,4.12,.07,7.98,1.23,11.48,1.16,3.49,2.91,6.63,5.2,9.34,2.29,2.69,5.11,4.98,8.38,6.81,3.25,1.81,6.87,3.14,10.77,3.93,2.24,.46,4.62,.7,7.06,.7,3.36,0,6.96-.4,10.7-1.18,3.72-.78,7.46-1.92,11.11-3.4,3.65-1.48,7.22-3.32,10.61-5.48,3.41-2.17,6.51-4.67,9.21-7.43,2.72-2.79,4.99-5.89,6.73-9.23,1.77-3.4,2.85-7.07,3.19-10.92,.09-.86,.12-1.78,.1-2.71-.02-.91-.08-1.8-.16-2.64-.45-3.72-1.95-7.18-4.48-10.32-1.64-2.03-3.78-3.82-6.4-5.34,1.85-.78,3.58-1.71,5.18-2.79,2.91-1.98,5.41-4.34,7.43-7.02,2.01-2.67,3.62-5.61,4.78-8.76,1.15-3.13,1.87-6.35,2.13-9.58,.04-.36,.07-.74,.1-1.14,.02-.42,.03-.79,.03-1.1,.04-4.24-.61-7.96-1.93-11.05-1.34-3.11-3.22-5.71-5.58-7.72-2.35-1.99-5.12-3.47-8.23-4.39-3.01-.88-6.24-1.38-9.6-1.46-.31,0-.61,0-.91,0h0Zm-23.64,14.02c2.55-.89,5.26-1.66,8.05-2.29,2.74-.62,5.39-.94,7.87-.94,2.28,0,4.37,.28,6.22,.82,1.4,.4,2.69,.95,3.85,1.65,1.1,.66,2.05,1.53,2.83,2.56,.79,1.04,1.42,2.32,1.87,3.81,.46,1.51,.67,3.3,.63,5.33,0,.32,0,.61-.03,.91-.02,.3-.05,.62-.08,.95-.23,2.53-.79,5.04-1.66,7.49-.87,2.42-2.12,4.72-3.73,6.85-1.6,2.12-3.64,4.04-6.05,5.71-2.42,1.67-5.31,3.01-8.61,3.99-.19,.06-.38,.14-.54,.25-.21,.14-.4,.3-.58,.48,.41-2.42,.82-4.83,1.21-7.19,.64-3.88,1.25-7.61,1.83-11.2l.16-.98,1.37-8.47c.01-.08,.02-.16,.02-.25,.04-1.16,.02-2.25-.07-3.22-.1-1.12-.35-2.13-.74-2.99-.46-1.01-1.12-1.8-1.98-2.37-.87-.58-1.96-.88-3.24-.88-.72,0-1.52,.11-2.44,.32-.85,.2-1.74,.49-2.62,.84-.77,.32-1.76,.81-3.04,1.52-1.22,.67-2.49,1.4-3.78,2.16-.89,.5-1.84,1.04-2.82,1.6-.94,.54-1.89,1.04-2.83,1.5-.97,.47-1.89,.91-2.75,1.29-.81,.36-1.55,.65-2.22,.86-.47,.11-.8,.15-1.01,.16,.05-.13,.13-.3,.24-.5,.29-.51,.71-1.08,1.25-1.69,1.02-1.12,2.7-2.43,4.97-3.87,2.31-1.46,5.16-2.88,8.46-4.23h0Zm-7.49,79.04c1.2,0,2.32-.16,3.32-.46,1.57-.48,2.94-1.24,4.07-2.25,1.08-.97,2-2.12,2.73-3.43,.67-1.21,1.25-2.47,1.72-3.76,.03-.09,.06-.18,.08-.27,.32-1.5,.73-3.59,1.24-6.39,.49-2.68,1.05-5.82,1.65-9.32l.39-2.25c.44-2.57,.91-5.26,1.4-8.06,.15,.27,.32,.47,.47,.63,.32,.32,.74,.51,1.18,.56,2.67,.3,4.96,.84,6.79,1.62,1.77,.76,3.22,1.68,4.29,2.75,1.05,1.05,1.79,2.22,2.25,3.58,.48,1.41,.71,2.95,.67,4.59-.04,2.72-.6,5.46-1.66,8.16-1.09,2.77-2.59,5.48-4.44,8.05-1.87,2.59-4.07,5.04-6.53,7.28-2.47,2.24-5.12,4.2-7.9,5.85-2.76,1.63-5.63,2.93-8.53,3.86-2.85,.91-5.64,1.38-8.3,1.38-.41,0-.82,0-1.23-.03-.36-.02-.75-.06-1.14-.13-.03,0-.06,0-.09-.01-2.67-.33-5.05-1.09-7.06-2.26-2-1.17-3.68-2.69-4.99-4.53-1.32-1.86-2.3-4.05-2.9-6.51-.61-2.5-.8-5.24-.58-8.13,.07-1.16,.25-2.38,.53-3.66,.28-1.31,.64-2.63,1.06-3.92,.61-1.75,1.47-3.49,2.55-5.12,1.1-1.65,2.3-3.12,3.57-4.35,1.25-1.21,2.53-2.18,3.83-2.89,1.16-.63,2.22-.95,3.15-.95,.48,0,.9,.11,1.27,.33,.36,.21,.7,.6,1,1.14,.36,.65,.64,1.55,.82,2.67,.2,1.21,.24,2.72,.13,4.48-.03,.49,.12,.97,.42,1.35,.66,.85,1.6,1.31,2.66,1.31,.13,0,.26,0,.39-.03-.11,.58-.23,1.15-.34,1.71-.56,2.77-1.2,5.33-1.9,7.62,0,.03-.02,.06-.03,.1l-.7,1.56c-.23,.52-.41,.76-.49,.85-.05,.05-.09,.11-.13,.16-.42,.59-.67,1.21-.75,1.86-.66,1.72,.06,3.05,1.03,3.75,.66,.49,1.47,.91,2.41,1.25,.14,.05,.28,.09,.43,.11,.76,.1,1.49,.15,2.18,.15h0Z"/></g><g><path class="cls-2" d="M365.12,84.25c-2.45,0-4.2-.86-5.21-2.56-.91-1.53-1.37-3.55-1.37-6,0-.42,0-.83,.03-1.25,.02-.41,.05-.85,.09-1.3,.12-1.34,.33-2.81,.61-4.38,.28-1.55,.62-3.15,1-4.76,.39-1.62,.8-3.26,1.24-4.86l1.26-4.65c.68-2.4,1.29-4.69,1.83-6.82,.53-2.1,.85-3.81,.96-5.07,.08-.68,.04-1.06,0-1.27-.08-.32-.15-.61-.21-.88,0,0,0-.02-.01-.03-.13-.32-.19-.6-.19-.85v-.42c.07-1,.53-1.7,1.31-2.05,.57-.26,1.21-.39,1.91-.39,.89,0,1.8,.13,2.71,.4,.9,.26,1.55,.51,1.97,.75,1.42,.88,2.35,2.15,2.82,3.82,.43,1.53,.58,3.16,.45,4.83-.17,1.83-.5,3.66-.99,5.45-.49,1.77-.96,3.28-1.41,4.5l-1.27,4.1c-.49,1.58-.96,3.23-1.4,4.91-.43,1.65-.84,3.33-1.22,4.99-.37,1.59-.61,2.98-.73,4.14-.03,.75,0,1.46,.08,2.03,0,0,0,0,0,.01,.21-.11,.55-.33,1.03-.77,.78-.72,1.65-1.69,2.6-2.89,.96-1.22,1.96-2.59,2.95-4.08,1.01-1.5,2.01-3.05,2.98-4.59,.98-1.55,1.88-3.03,2.72-4.42,.78-1.29,1.45-2.4,2.02-3.32,.39-1.18,.76-2.3,1.09-3.34,.34-1.05,.65-2.08,.92-3.08,.27-1,.51-2.02,.7-3.04,.19-1.01,.33-2.11,.4-3.27,.04-.29,.03-.55,0-.81-.04-.29-.09-.58-.16-.86-.05-.15-.09-.42-.09-.8-.05-.14-.07-.29-.05-.44,.14-1.43,.88-2.11,1.48-2.43,.72-.39,1.79-.57,3.35-.57,1.15,0,2.12,.24,2.88,.72,.74,.47,1.33,1.1,1.75,1.86,.4,.73,.66,1.59,.78,2.55,.11,.9,.12,1.84,.03,2.79-.21,2.25-.68,4.8-1.41,7.57-.72,2.75-1.49,5.47-2.29,8.11-.72,2.39-1.38,4.63-1.98,6.71-.58,2-.91,3.7-.98,5.06-.04,.41-.06,.85-.06,1.36,0,.47,.04,.92,.13,1.33,.08,.37,.19,.68,.33,.92,0,0,0,0,0,0,.19-.05,.69-.28,1.6-1.31,.95-1.08,1.99-2.45,3.1-4.1,1.11-1.65,2.26-3.47,3.42-5.43,1.16-1.96,2.22-3.83,3.16-5.55,.96-1.75,1.75-3.24,2.39-4.48,.77-1.49,1.03-1.96,1.13-2.15l.03-.07c0-.12,.04-.24,.09-.35,.23-.46,.45-.83,.67-1.11,.26-.35,.77-.76,1.73-.76,.84,0,1.35,.34,1.64,.62s.55,.65,.76,1.07c.15,.3,.14,.66-.03,.95-.27,.47-.59,1.04-.94,1.7s-.69,1.33-1,2c-.81,1.59-1.67,3.29-2.59,5.15-.92,1.87-1.93,3.76-3,5.64-1.06,1.87-2.19,3.71-3.37,5.48-1.18,1.78-2.41,3.4-3.66,4.79-1.27,1.42-2.58,2.57-3.89,3.42-1.4,.9-2.83,1.36-4.26,1.36-1.52,0-2.83-.22-3.89-.64-1.09-.44-1.99-1.08-2.67-1.91-.67-.81-1.16-1.79-1.43-2.89-.26-1.04-.39-2.2-.39-3.44v-1.39c-.37,.55-.75,1.09-1.12,1.63-1.14,1.63-2.36,3.13-3.64,4.47-1.3,1.37-2.72,2.49-4.22,3.33-1.57,.88-3.25,1.33-5.02,1.33Z"/><path class="cls-1" d="M368.36,37.71c.8,0,1.61,.12,2.43,.36,.82,.24,1.41,.46,1.77,.66,1.16,.72,1.94,1.79,2.34,3.21,.4,1.42,.54,2.92,.42,4.48-.16,1.76-.48,3.52-.96,5.26-.48,1.74-.94,3.21-1.38,4.42-.36,1.16-.79,2.54-1.29,4.15-.5,1.6-.97,3.25-1.41,4.96-.44,1.7-.85,3.38-1.23,5.02-.38,1.64-.63,3.06-.75,4.27-.04,.88,0,1.64,.09,2.28s.33,.96,.69,.96c.52,0,1.19-.38,2.01-1.14,.82-.76,1.72-1.76,2.7-3,.98-1.24,1.98-2.62,3-4.14,1.02-1.52,2.02-3.06,3-4.62,.98-1.56,1.89-3.04,2.73-4.44,.84-1.4,1.56-2.58,2.16-3.54l-.06,.06c.4-1.2,.77-2.33,1.11-3.39,.34-1.06,.65-2.1,.93-3.12,.28-1.02,.52-2.06,.72-3.12,.2-1.06,.34-2.19,.42-3.39,.04-.32,.04-.65,0-.99-.04-.34-.1-.67-.18-.99-.04-.12-.06-.32-.06-.6,0-.12-.02-.22-.06-.3,.08-.8,.4-1.35,.96-1.65,.56-.3,1.52-.45,2.88-.45,.96,0,1.74,.19,2.34,.57,.6,.38,1.07,.88,1.41,1.5s.56,1.35,.66,2.19c.1,.84,.11,1.7,.03,2.58-.2,2.2-.66,4.67-1.38,7.41-.72,2.74-1.48,5.43-2.28,8.07-.72,2.4-1.38,4.64-1.98,6.72-.6,2.08-.94,3.84-1.02,5.28-.04,.4-.06,.87-.06,1.41s.05,1.05,.15,1.53c.1,.48,.25,.89,.45,1.23,.2,.34,.46,.51,.78,.51,.64,0,1.45-.55,2.43-1.66,.98-1.11,2.04-2.51,3.18-4.2,1.14-1.69,2.29-3.52,3.45-5.48,1.16-1.96,2.22-3.82,3.18-5.58,.96-1.76,1.76-3.26,2.4-4.5,.64-1.24,1.02-1.96,1.14-2.16l.18-.42h-.06c.2-.4,.39-.72,.57-.96,.18-.24,.49-.36,.93-.36,.4,0,.71,.11,.93,.33s.41,.49,.57,.81c-.28,.48-.6,1.06-.96,1.74-.36,.68-.7,1.36-1.02,2.04-.8,1.56-1.66,3.27-2.58,5.13-.92,1.86-1.91,3.72-2.97,5.58s-2.17,3.67-3.33,5.42c-1.16,1.75-2.35,3.31-3.57,4.68-1.22,1.36-2.45,2.45-3.69,3.25-1.24,.8-2.48,1.2-3.72,1.2-1.4,0-2.57-.19-3.51-.57-.94-.38-1.7-.92-2.28-1.62-.58-.7-.99-1.53-1.23-2.5-.24-.96-.36-2.03-.36-3.2v-1.75c.04-.6,.11-1.24,.21-1.9,.1-.66,.23-1.34,.39-2.02-.08,.08-.13,.16-.15,.24-.02,.08-.07,.16-.15,.24-1.04,1.64-2.12,3.26-3.24,4.86-1.12,1.6-2.3,3.05-3.54,4.35-1.24,1.3-2.57,2.35-3.99,3.15-1.42,.8-2.93,1.2-4.53,1.2-2.08,0-3.53-.69-4.35-2.07-.82-1.38-1.23-3.21-1.23-5.49,0-.4,0-.8,.03-1.2,.02-.4,.05-.82,.09-1.26,.12-1.32,.32-2.75,.6-4.29,.28-1.54,.61-3.11,.99-4.71,.38-1.6,.79-3.21,1.23-4.83s.86-3.17,1.26-4.65c.68-2.4,1.29-4.68,1.83-6.84,.54-2.16,.87-3.9,.99-5.22,.08-.64,.07-1.17-.03-1.59-.1-.42-.19-.79-.27-1.11v.06c-.08-.2-.12-.36-.12-.48v-.42c.04-.56,.28-.94,.72-1.14,.44-.2,.94-.3,1.5-.3m0-2c-.85,0-1.63,.16-2.33,.48-1.11,.5-1.79,1.53-1.89,2.82,0,.05,0,.1,0,.14v.42c0,.37,.08,.76,.25,1.19,.06,.24,.12,.51,.2,.81,.01,.06,.06,.32-.01,.88,0,.02,0,.05,0,.07-.11,1.21-.42,2.86-.94,4.92-.53,2.12-1.14,4.4-1.81,6.78-.41,1.5-.83,3.05-1.27,4.67-.44,1.61-.86,3.26-1.25,4.89-.39,1.63-.73,3.25-1.01,4.81-.29,1.6-.5,3.1-.62,4.47-.04,.47-.07,.91-.1,1.34-.02,.43-.03,.87-.03,1.3,0,2.63,.51,4.82,1.51,6.51,.83,1.39,2.55,3.05,6.07,3.05,1.94,0,3.79-.49,5.51-1.46,1.58-.89,3.08-2.07,4.45-3.51,1.08-1.13,2.12-2.38,3.11-3.72,.07,.7,.18,1.38,.34,2.01,.31,1.25,.86,2.36,1.63,3.29,.79,.96,1.83,1.7,3.07,2.2,1.19,.48,2.58,.72,4.26,.72s3.24-.51,4.8-1.52c1.38-.89,2.76-2.1,4.1-3.59,1.28-1.43,2.54-3.08,3.75-4.91,1.18-1.79,2.33-3.65,3.4-5.54,1.07-1.89,2.09-3.8,3.02-5.69,.9-1.83,1.77-3.54,2.57-5.1,.01-.02,.02-.04,.03-.06,.3-.64,.63-1.3,.98-1.96,.36-.67,.66-1.22,.92-1.66,.34-.58,.36-1.3,.06-1.91-.26-.51-.57-.96-.94-1.33-.42-.42-1.16-.92-2.34-.92-1.45,0-2.21,.73-2.53,1.16-.25,.33-.5,.75-.76,1.26-.08,.16-.14,.33-.17,.51-.15,.28-.45,.83-1.07,2.05-.64,1.23-1.44,2.73-2.38,4.46-.93,1.71-1.99,3.57-3.15,5.52-1.15,1.94-2.29,3.75-3.39,5.38-1.08,1.61-2.1,2.95-3.02,3.99-.1,.12-.2,.22-.28,.31-.02-.19-.03-.39-.03-.59,0-.47,.02-.88,.05-1.21,0-.03,0-.06,0-.09,.07-1.28,.39-2.91,.94-4.84,.61-2.1,1.27-4.35,1.97-6.7,.8-2.64,1.57-5.38,2.3-8.14,.74-2.83,1.23-5.43,1.44-7.74,.09-1.02,.08-2.03-.04-3-.13-1.09-.43-2.07-.89-2.92-.5-.92-1.21-1.67-2.09-2.23-.92-.58-2.07-.88-3.41-.88-1.74,0-2.95,.22-3.82,.69-1.15,.62-1.86,1.76-2.01,3.21-.02,.23,0,.47,.05,.69,.01,.37,.05,.66,.13,.93,.05,.23,.1,.46,.12,.7,.02,.18,.02,.35,0,.51,0,.04,0,.07-.01,.11-.07,1.12-.21,2.18-.39,3.15-.19,1-.42,1.99-.68,2.96-.27,.98-.57,2-.91,3.04-.32,1.01-.68,2.08-1.05,3.22-.55,.88-1.19,1.95-1.97,3.23-.81,1.36-1.73,2.84-2.71,4.41-.97,1.54-1.97,3.08-2.97,4.57-.98,1.46-1.96,2.81-2.91,4.02-.68,.86-1.33,1.61-1.92,2.21,.12-1.09,.35-2.4,.7-3.89,.38-1.66,.79-3.33,1.22-4.97,.43-1.67,.9-3.3,1.38-4.86l.24-.78c.39-1.26,.74-2.36,1.03-3.32,.45-1.23,.93-2.76,1.41-4.52,.51-1.85,.85-3.74,1.02-5.61,.14-1.82-.02-3.55-.49-5.2-.54-1.91-1.62-3.38-3.21-4.37-.03-.02-.05-.03-.08-.05-.5-.28-1.19-.54-2.18-.83-1-.29-2.01-.44-2.99-.44h0Z"/></g><g><path class="cls-2" d="M404.66,86.71c-1.38,0-2.69-.13-3.89-.37-1.24-.26-2.33-.67-3.25-1.21-.96-.58-1.71-1.32-2.24-2.22-.54-.93-.77-2.03-.67-3.27,.12-.82,.49-1.56,1.11-2.29,.87-1.01,1.82-1.22,2.47-1.22,.96,0,1.66,.57,1.82,1.48,.1,.52,.12,1.08,.07,1.65,0,.33,.09,.65,.25,.87,.19,.25,.44,.44,.77,.57,.41,.16,.87,.27,1.38,.32,.32,.03,.65,.05,.97,.05,.22,0,.44,0,.66-.02,2.94-.11,4.96-.98,6.23-2.66,1.31-1.75,2.03-4.21,2.14-7.31,0-.96-.14-2.11-.43-3.38-.29-1.3-.68-2.67-1.14-4.08-.46-1.39-1.01-2.79-1.64-4.17-.33-.73-.69-1.43-1.06-2.1l-1.86,4.19c-.17,.37-.53,.59-.91,.59-.11,0-.23-.02-.34-.06l-2.16-.78c-.26-.09-.47-.29-.58-.54-.11-.25-.11-.54,0-.79l2.96-6.98c-1.3-1.77-2.38-3.82-3.21-6.1-.92-2.5-1.38-5.08-1.38-7.67,0-2.03,.35-4.03,1.05-5.93,.72-1.97,1.99-3.69,3.76-5.12,.78-.7,1.76-1.25,2.87-1.61,1.08-.35,2.18-.53,3.28-.53,.76,0,1.51,.09,2.22,.27,.77,.19,1.45,.51,2.04,.95,.6,.45,1.09,1.04,1.46,1.75,.37,.72,.56,1.57,.56,2.53,0,1.35-.3,2.89-.9,4.59-.57,1.62-1.24,3.36-2,5.16-.35,.9-.72,1.83-1.11,2.75-.31,.75-.6,1.52-.87,2.29,1.45,2.17,2.86,4.41,4.19,6.66,1.41,2.38,2.67,4.7,3.76,6.91,1.09,2.22,1.98,4.34,2.63,6.3,.29,.88,.53,1.72,.7,2.5,.41-.65,.81-1.31,1.21-1.98,.88-1.47,1.72-2.94,2.54-4.39,.81-1.44,1.56-2.83,2.23-4.14,.66-1.27,1.22-2.4,1.69-3.37,.06-.17,.15-.3,.23-.4l.33-.66c.01-.1,.04-.2,.09-.29,.23-.46,.45-.82,.66-1.11,.26-.35,.77-.76,1.73-.76,.66,0,1.85,.24,2.49,1.83,.11,.27,.09,.56-.03,.82l-.36,.72c-.05,.1-.11,.18-.19,.26l-.07,.07c-.58,1.13-1.25,2.44-1.99,3.93-.78,1.55-1.64,3.22-2.56,4.94-.93,1.73-1.92,3.5-2.96,5.26-1.05,1.78-2.13,3.49-3.21,5.09-1.1,1.62-2.23,3.12-3.37,4.44-1.16,1.35-2.3,2.46-3.39,3.29-1.04,.74-2.18,1.38-3.42,1.92-1.21,.53-2.47,.99-3.75,1.36-1.27,.37-2.57,.66-3.87,.87-1.31,.21-2.56,.31-3.73,.31Zm8.12-53.87c-.05,.05-.12,.12-.19,.2-.35,.42-.69,1.02-1.01,1.78-.33,.8-.62,1.73-.84,2.74-.22,1-.34,2.02-.34,3.02,0,.07,0,.15,0,.22,.18-.45,.37-.91,.56-1.4,.4-1.01,.77-2.01,1.09-2.98,.31-.92,.54-1.76,.69-2.49,.16-.77,.08-1.01,.08-1.02-.01-.03-.02-.05-.04-.08Z"/><path class="cls-1" d="M411.68,27.03c.68,0,1.34,.08,1.98,.24s1.2,.42,1.68,.78c.48,.36,.87,.83,1.17,1.41,.3,.58,.45,1.27,.45,2.07,0,1.24-.28,2.66-.84,4.26-.56,1.6-1.22,3.3-1.98,5.1-.36,.92-.73,1.84-1.11,2.76-.38,.92-.73,1.86-1.05,2.82,1.56,2.32,3.04,4.66,4.44,7.02,1.4,2.36,2.64,4.64,3.72,6.84,1.08,2.2,1.94,4.26,2.58,6.18,.64,1.92,.98,3.58,1.02,4.98,.92-1.36,1.82-2.78,2.7-4.26,.88-1.48,1.73-2.95,2.55-4.41,.82-1.46,1.57-2.85,2.25-4.17,.68-1.32,1.26-2.48,1.74-3.48,0-.04,.04-.1,.12-.18,.04-.04,.06-.08,.06-.12l.48-.96h-.06c.2-.4,.39-.72,.57-.96s.49-.36,.93-.36c.72,0,1.24,.4,1.56,1.2l-.36,.72-.18,.18c-.6,1.16-1.29,2.52-2.07,4.08-.78,1.56-1.63,3.2-2.55,4.92-.92,1.72-1.9,3.46-2.94,5.22-1.04,1.76-2.1,3.44-3.18,5.04-1.08,1.6-2.18,3.05-3.3,4.35-1.12,1.3-2.2,2.35-3.24,3.15-.96,.68-2.03,1.28-3.21,1.8s-2.39,.96-3.63,1.32c-1.24,.36-2.49,.64-3.75,.84-1.26,.2-2.45,.3-3.57,.3-1.32,0-2.55-.12-3.69-.35-1.14-.24-2.12-.6-2.94-1.09-.82-.49-1.45-1.11-1.89-1.87-.44-.75-.62-1.65-.54-2.69,.08-.56,.37-1.13,.87-1.71s1.07-.87,1.71-.87c.48,0,.76,.22,.84,.66,.08,.44,.1,.9,.06,1.38,0,.64,.15,1.16,.45,1.56,.3,.4,.7,.7,1.2,.9,.5,.2,1.05,.33,1.65,.39,.36,.04,.71,.05,1.07,.05,.24,0,.49,0,.73-.02,3.2-.12,5.52-1.14,6.96-3.06,1.44-1.92,2.22-4.54,2.34-7.87,0-1.08-.15-2.29-.45-3.63-.3-1.34-.69-2.73-1.17-4.17-.48-1.44-1.04-2.86-1.68-4.26-.64-1.4-1.34-2.68-2.1-3.84l-2.64,5.95-2.16-.78,3.18-7.51c-1.4-1.8-2.54-3.9-3.42-6.31s-1.32-4.84-1.32-7.33c0-1.92,.33-3.78,.99-5.59,.66-1.8,1.81-3.36,3.45-4.69,.72-.64,1.57-1.12,2.55-1.44,.98-.32,1.97-.48,2.97-.48m-1.56,17.1l.6-1.44c.36-.88,.75-1.85,1.17-2.91,.42-1.06,.79-2.07,1.11-3.03,.32-.96,.56-1.83,.72-2.61,.16-.78,.16-1.33,0-1.65h.06c-.24-.48-.5-.74-.78-.78-.03,0-.05,0-.08,0-.34,0-.7,.23-1.09,.69-.42,.5-.81,1.18-1.17,2.04-.36,.86-.66,1.83-.9,2.91s-.36,2.16-.36,3.24c0,1.28,.24,2.46,.72,3.54m1.56-19.1c-1.21,0-2.42,.19-3.59,.58-1.22,.4-2.31,1.01-3.22,1.81-1.9,1.54-3.26,3.4-4.04,5.53-.74,2.01-1.11,4.13-1.11,6.27,0,2.71,.49,5.4,1.44,8.02,.8,2.18,1.81,4.15,3.01,5.89l-2.74,6.46c-.21,.51-.21,1.08,0,1.58,.22,.5,.64,.89,1.15,1.08l2.16,.78c.22,.08,.45,.12,.68,.12,.77,0,1.5-.45,1.83-1.19l1.01-2.27c.03,.06,.06,.12,.09,.19,.61,1.34,1.15,2.71,1.6,4.06,.46,1.37,.83,2.71,1.12,3.98,.26,1.18,.4,2.24,.4,3.16-.11,2.88-.76,5.13-1.94,6.71-1.07,1.43-2.85,2.17-5.43,2.26-.02,0-.04,0-.06,0-.2,.01-.4,.02-.6,.02-.29,0-.58-.01-.87-.04-.41-.04-.79-.13-1.11-.26-.21-.08-.29-.17-.34-.24,0,0-.04-.08-.05-.3,.04-.62,.01-1.23-.09-1.81-.25-1.4-1.36-2.3-2.81-2.3-.86,0-2.11,.27-3.22,1.57-.75,.87-1.2,1.79-1.33,2.73,0,.04-.01,.09-.01,.13-.11,1.45,.16,2.74,.81,3.85,.61,1.04,1.48,1.91,2.59,2.57,1.01,.61,2.21,1.06,3.56,1.34,1.26,.26,2.64,.4,4.1,.4,1.22,0,2.53-.11,3.88-.32,1.35-.21,2.69-.52,4-.9,1.32-.38,2.63-.86,3.88-1.41,1.3-.57,2.49-1.24,3.56-2,.02-.01,.04-.03,.06-.05,1.14-.88,2.33-2.03,3.54-3.43,1.17-1.35,2.32-2.88,3.44-4.54,1.09-1.62,2.18-3.35,3.24-5.14,1.05-1.77,2.05-3.55,2.98-5.3,.93-1.74,1.8-3.41,2.58-4.97,.71-1.43,1.35-2.69,1.92-3.78,.13-.14,.25-.3,.33-.48l.36-.72c.26-.51,.28-1.11,.07-1.64-.63-1.56-1.87-2.45-3.42-2.45-1.45,0-2.21,.73-2.53,1.16-.25,.34-.5,.75-.76,1.26-.07,.14-.12,.29-.16,.44l-.22,.44c-.13,.18-.23,.36-.3,.56-.45,.94-.99,2.01-1.65,3.29-.67,1.3-1.42,2.68-2.22,4.11-.81,1.44-1.66,2.91-2.52,4.36-.03-.11-.07-.22-.11-.32-.67-2-1.57-4.17-2.68-6.43-1.1-2.23-2.37-4.58-3.79-6.98-1.26-2.12-2.58-4.23-3.95-6.28,.21-.6,.44-1.19,.68-1.77,.38-.92,.75-1.84,1.11-2.77,.76-1.81,1.44-3.56,2.01-5.19,.63-1.8,.95-3.46,.95-4.92,0-1.12-.23-2.12-.67-2.99-.44-.84-1.02-1.55-1.74-2.09-.7-.52-1.5-.9-2.4-1.12-.8-.2-1.62-.3-2.47-.3h0Zm1.81,8.52h0Z"/></g><g><path class="cls-2" d="M439.52,84.61c-3.87,0-6.63-1.02-8.22-3.02-1.54-1.93-2.32-4.62-2.32-8,0-.45,.01-.91,.03-1.36,.02-.45,.05-.93,.09-1.42,.12-1.39,.41-3.3,.85-5.68,.45-2.38,.97-5,1.57-7.8,.59-2.79,1.26-5.78,1.98-8.9,.72-3.1,1.42-6.09,2.1-8.97l.51-2.08c-.87,.07-1.72,.13-2.53,.18-1.24,.08-2.47,.12-3.66,.12-2.54,0-4.8-.32-6.73-.95-2.11-.69-3.62-1.99-4.5-3.89-.13-.32-.21-.63-.26-.96-.07-.45-.02-.86,.13-1.21,.21-.46,.59-.78,1.1-.92,.14-.04,.27-.05,.41-.05,.32,0,.65,.09,1,.29,.02,0,.04,.02,.07,.03,1.11,.48,2.35,.82,3.67,1.01,1.37,.19,2.8,.29,4.27,.29s2.94-.07,4.54-.21c1.38-.12,2.74-.24,4.06-.38,.49-2.23,.92-4.2,1.28-5.91,.39-1.85,.63-3.2,.7-4,.03-.58,.02-1.09-.03-1.49-.06-.43-.12-.84-.2-1.22-.05-.23-.08-.45-.1-.66-.02-.21-.04-.42-.04-.62,0-.05,0-.09,0-.14,.13-.9,.61-1.57,1.34-1.89,.54-.23,1.17-.35,1.87-.35,1.71,0,3.13,.28,4.21,.83,1.1,.56,1.95,1.31,2.55,2.24,.58,.9,.94,1.94,1.08,3.09,.13,1.07,.15,2.16,.06,3.26-.08,1.08-.24,2.24-.46,3.46-.16,.85-.33,1.74-.51,2.68,1.36,.04,2.69,.13,3.97,.29,1.71,.21,3.3,.62,4.75,1.21,1.48,.6,2.83,1.44,3.99,2.5,1.18,1.07,2.15,2.44,2.88,4.08,.06,.15,.09,.3,.09,.46,.08,.42,.02,.98-.45,1.59-.37,.47-.89,.74-1.46,.74-.28,0-.57-.06-.86-.18-.12-.05-.23-.12-.32-.22-1.54-1.54-3.45-2.59-5.68-3.12-2.34-.56-4.89-.84-7.6-.84h-.7c-.35,1.56-.73,3.12-1.12,4.65l-1.41,5.52-1.14,4.55-.17,.76c-.29,1.07-.65,2.47-1.08,4.25-.43,1.75-.86,3.68-1.28,5.72-.42,2.04-.78,4.11-1.07,6.15-.29,2.03-.44,3.88-.44,5.5,0,1.09,.08,2.04,.25,2.82,.12,.58,.32,.98,.57,1.14,.05,.04,.09,.06,.22,.06s.34-.02,.68-.12c.69-.21,1.58-.7,2.64-1.47,1.13-.91,2.29-2.14,3.42-3.61,1.16-1.51,2.26-3.14,3.3-4.86,1.04-1.73,2.02-3.5,2.9-5.25,.81-1.6,1.56-3.12,2.22-4.51,0-.11,.04-.21,.09-.32,.57-1.13,1.08-2.12,1.54-2.99,.49-.92,.97-1.67,1.45-2.28,.02-.03,.05-.05,.07-.08,.33-.34,.76-.36,1.38-.36s1.74,.23,2.32,1.79c.09,.25,.08,.53-.04,.78l-2.02,4.2c-.01,.1-.04,.2-.08,.29-1.28,2.68-2.7,5.53-4.21,8.49-1.54,2.99-3.21,5.78-4.96,8.28-1.78,2.54-3.71,4.68-5.73,6.35-2.14,1.76-4.43,2.66-6.82,2.66Z"/><path class="cls-1" d="M442.52,15.45c1.56,0,2.81,.24,3.75,.72,.94,.48,1.66,1.11,2.16,1.89s.81,1.67,.93,2.67c.12,1,.14,2.02,.06,3.06-.08,1.04-.23,2.16-.45,3.36s-.47,2.48-.75,3.84c1.76,0,3.45,.1,5.07,.3,1.62,.2,3.12,.58,4.5,1.14s2.61,1.33,3.69,2.31c1.08,.98,1.96,2.23,2.64,3.75h-.06c.16,.32,.1,.66-.18,1.02-.18,.23-.4,.35-.66,.35-.15,0-.3-.04-.47-.11-1.68-1.68-3.73-2.81-6.15-3.39-2.42-.58-5.03-.87-7.83-.87h-1.5c-.4,1.8-.83,3.6-1.29,5.4s-.93,3.64-1.41,5.52l-1.14,4.56-.18,.78c-.28,1.04-.64,2.45-1.08,4.23-.44,1.78-.87,3.7-1.29,5.76-.42,2.06-.78,4.13-1.08,6.21-.3,2.08-.45,3.96-.45,5.64,0,1.16,.09,2.17,.27,3.03,.18,.86,.51,1.45,.99,1.77,.19,.15,.45,.23,.77,.23,.28,0,.6-.06,.97-.17,.8-.24,1.78-.78,2.94-1.62,1.24-1,2.45-2.27,3.63-3.81,1.18-1.54,2.3-3.19,3.36-4.95,1.06-1.76,2.04-3.53,2.94-5.31s1.69-3.39,2.37-4.83h-.06c.56-1.12,1.07-2.11,1.53-2.97,.46-.86,.91-1.57,1.35-2.13,.04-.04,.26-.06,.66-.06,.64,0,1.1,.38,1.38,1.14l-2.16,4.5h.06c-1.28,2.68-2.68,5.5-4.2,8.46-1.52,2.96-3.15,5.68-4.89,8.16-1.74,2.48-3.59,4.53-5.55,6.15-1.96,1.62-4.02,2.43-6.18,2.43-3.56,0-6.04-.88-7.44-2.64-1.4-1.76-2.1-4.22-2.1-7.38,0-.44,.01-.88,.03-1.32,.02-.44,.05-.9,.09-1.38,.12-1.36,.4-3.22,.84-5.58,.44-2.36,.96-4.95,1.56-7.77s1.26-5.78,1.98-8.88c.72-3.1,1.42-6.09,2.1-8.97l.84-3.42c-1.36,.12-2.66,.22-3.9,.3-1.24,.08-2.44,.12-3.6,.12-2.44,0-4.58-.3-6.42-.9-1.84-.6-3.14-1.72-3.9-3.36-.08-.2-.14-.43-.18-.69-.04-.26-.02-.48,.06-.66,.08-.18,.23-.3,.45-.36,.04-.01,.09-.02,.14-.02,.2,0,.44,.1,.73,.29l-.06-.06c1.2,.52,2.51,.88,3.93,1.08,1.42,.2,2.89,.3,4.41,.3,1.44,0,2.98-.07,4.62-.21,1.64-.14,3.24-.29,4.8-.45,.56-2.52,1.04-4.73,1.44-6.63,.4-1.9,.64-3.27,.72-4.11,.04-.68,.03-1.25-.03-1.71-.06-.46-.13-.89-.21-1.29-.04-.2-.07-.39-.09-.57-.02-.18-.03-.35-.03-.51,.08-.56,.33-.93,.75-1.11,.42-.18,.91-.27,1.47-.27m17.82,42.96h0m-17.83-44.96c-.83,0-1.59,.14-2.26,.43-1.07,.46-1.76,1.41-1.94,2.67-.01,.09-.02,.19-.02,.28,0,.24,.01,.49,.04,.74,.02,.22,.06,.48,.12,.74,.07,.36,.13,.74,.19,1.15,.03,.22,.06,.63,.02,1.3-.08,.77-.31,2.06-.68,3.85-.31,1.49-.68,3.2-1.12,5.2-1.1,.11-2.22,.21-3.33,.3-1.57,.13-3.07,.2-4.45,.2s-2.81-.09-4.13-.28c-1.24-.17-2.38-.49-3.41-.93-.02,0-.03-.01-.05-.02-.48-.25-.95-.37-1.42-.37-.22,0-.44,.03-.65,.08-.82,.23-1.44,.75-1.76,1.48-.24,.54-.31,1.14-.21,1.78,.06,.41,.16,.79,.3,1.13,.01,.03,.03,.07,.04,.1,1,2.16,2.71,3.64,5.1,4.42,2.03,.66,4.4,1,7.04,1,1.21,0,2.47-.04,3.73-.12,.38-.02,.77-.05,1.17-.08l-.18,.73c-.69,2.9-1.39,5.89-2.11,8.99-.72,3.12-1.39,6.12-1.99,8.92-.6,2.8-1.12,5.43-1.57,7.82-.46,2.45-.74,4.34-.87,5.77-.04,.52-.07,1-.1,1.46-.02,.47-.03,.94-.03,1.41,0,3.61,.85,6.51,2.54,8.62,1.79,2.25,4.82,3.4,9,3.4,2.63,0,5.13-.97,7.45-2.89,2.09-1.73,4.08-3.93,5.91-6.54,1.78-2.54,3.47-5.36,5.03-8.4,1.51-2.93,2.91-5.77,4.19-8.43,.09-.16,.15-.34,.19-.53l1.94-4.05c.23-.49,.26-1.05,.07-1.56-.57-1.56-1.76-2.45-3.26-2.45-.61,0-1.44,0-2.09,.66-.05,.05-.1,.1-.14,.16-.52,.66-1.02,1.45-1.54,2.42-.46,.86-.98,1.88-1.56,3.02-.08,.15-.13,.32-.17,.48-.64,1.35-1.36,2.8-2.14,4.34-.87,1.73-1.84,3.47-2.87,5.18-1.01,1.68-2.1,3.29-3.23,4.77-1.07,1.39-2.16,2.55-3.26,3.44-1.19,.85-1.91,1.17-2.3,1.29-.04,.01-.07,.02-.1,.03-.03-.08-.06-.2-.1-.35-.15-.72-.23-1.6-.23-2.62,0-1.58,.14-3.38,.43-5.36,.29-2.02,.65-4.07,1.06-6.1,.41-2.03,.84-3.94,1.27-5.68,.43-1.75,.79-3.16,1.07-4.19,0-.02,.01-.05,.02-.07l.18-.78,1.13-4.52,.52-2.03,.89-3.49c.33-1.28,.65-2.59,.95-3.9,2.59,0,5.03,.28,7.27,.82,2.07,.5,3.77,1.43,5.2,2.86,.18,.18,.4,.33,.64,.43,.42,.17,.83,.26,1.25,.26,.88,0,1.68-.4,2.24-1.12,.55-.72,.78-1.52,.66-2.3,0-.26-.06-.53-.17-.77-.79-1.76-1.84-3.25-3.12-4.41-1.25-1.13-2.69-2.04-4.28-2.68-1.53-.62-3.22-1.05-5.01-1.27-.94-.12-1.91-.2-2.89-.25,.1-.53,.2-1.05,.29-1.54,.23-1.26,.39-2.46,.48-3.57,.09-1.16,.07-2.32-.07-3.45-.16-1.3-.57-2.48-1.23-3.51-.69-1.08-1.68-1.95-2.93-2.59-1.24-.63-2.76-.94-4.66-.94h0Z"/></g><g><path class="cls-2" d="M469.27,83.77c-2.5,0-4.63-.69-6.33-2.05-1.63-1.3-2.96-2.98-3.96-4.98-.98-1.96-1.68-4.16-2.07-6.52-.39-2.32-.58-4.61-.58-6.82v-1.77c0-.64,.04-1.23,.13-1.76,.15-1.85,.38-3.67,.66-5.34,.29-1.7,.67-3.17,1.13-4.39,.04-.1,.1-.2,.17-.28,.9-1.08,1.97-1.88,3.17-2.38,1.18-.49,2.41-.74,3.65-.74,.71,0,1.44,.09,2.18,.27,.25,.06,.5,.13,.75,.21,.21-1.72,.52-3.44,.93-5.14,.52-2.19,1.3-4.19,2.33-5.94,1.05-1.8,2.45-3.29,4.15-4.41,1.74-1.14,3.93-1.72,6.52-1.72,2.13,0,3.99,.46,5.52,1.37,1.51,.9,2.77,2.12,3.75,3.65,.96,1.49,1.67,3.28,2.12,5.31,.43,1.98,.65,4.13,.65,6.39,0,1.23-.06,2.42-.19,3.53,0,.04,0,.07-.02,.1-.33,3.12-1,6.35-2,9.62-.77,2.54-1.71,4.98-2.79,7.29,.58-.26,1.11-.56,1.61-.92,1.12-.81,2.17-1.8,3.11-2.94,.96-1.17,1.84-2.47,2.63-3.88,.82-1.46,1.61-2.93,2.35-4.38l1.33-2.43c.11-.2,.29-.36,.5-.45,.19-.08,.36-.15,.53-.22,.32-.14,.6-.21,.86-.21,.43,0,.84,.15,1.22,.46,.39,.31,.65,.8,.83,1.5,.05,.21,.04,.43-.05,.63-.69,1.63-1.59,3.5-2.67,5.56-1.1,2.1-2.43,4.13-3.95,6.01-1.53,1.9-3.31,3.56-5.28,4.93-1.91,1.33-4.04,2.1-6.34,2.3-.99,1.44-2.05,2.78-3.15,3.97-1.23,1.33-2.57,2.49-3.98,3.45-1.43,.97-2.94,1.73-4.49,2.27-1.58,.56-3.25,.84-4.95,.84Zm.14-21.02c-.03,.56-.04,1.11-.04,1.66,0,1.43,.09,2.83,.26,4.16,.17,1.29,.46,2.44,.86,3.4,.38,.92,.88,1.65,1.48,2.19,.54,.47,1.18,.71,1.98,.71,1.2,0,2.28-.27,3.3-.83,.7-.38,1.4-.91,2.09-1.56-1.46-.55-2.78-1.21-3.91-1.99-1.53-1.04-2.82-2.28-3.85-3.69-.89-1.23-1.62-2.58-2.17-4.04Zm12.52-27.1c-.66,0-1.23,.23-1.74,.72-.6,.56-1.11,1.35-1.54,2.34-.45,1.05-.81,2.29-1.08,3.69-.27,1.45-.49,2.98-.65,4.53-.08,.71-.14,1.5-.18,2.34-.04,.87-.06,1.77-.06,2.72,0,1.65,.1,3.39,.29,5.17,.19,1.75,.56,3.4,1.11,4.89,.53,1.45,1.27,2.72,2.21,3.76,.74,.83,1.67,1.39,2.82,1.72,.6-1.04,1.17-2.17,1.7-3.37,.64-1.46,1.22-2.98,1.73-4.53,.51-1.54,.93-3.14,1.26-4.75,.33-1.61,.56-3.2,.67-4.71,.08-.58,.12-1.07,.12-1.51v-1.53c0-1.64-.15-3.21-.43-4.67-.28-1.41-.71-2.64-1.27-3.67-.54-.98-1.24-1.76-2.08-2.32-.82-.55-1.76-.82-2.89-.82Z"/><path class="cls-1" d="M482.12,30.99c1.96,0,3.63,.41,5.01,1.23,1.38,.82,2.52,1.93,3.42,3.33,.9,1.4,1.56,3.06,1.98,4.98,.42,1.92,.63,3.98,.63,6.18,0,1.2-.06,2.34-.18,3.42v-.06c-.32,3.12-.98,6.32-1.98,9.6-1,3.28-2.26,6.36-3.78,9.24,1.56-.32,2.94-.91,4.14-1.77,1.2-.86,2.3-1.9,3.3-3.12,1-1.22,1.91-2.56,2.73-4.02,.82-1.46,1.61-2.93,2.37-4.41l1.32-2.4c.2-.08,.39-.16,.57-.24,.18-.08,.33-.12,.45-.12,.2,0,.4,.08,.6,.24,.2,.16,.36,.48,.48,.96-.68,1.6-1.56,3.43-2.64,5.49-1.08,2.06-2.36,4.01-3.84,5.85-1.48,1.84-3.17,3.42-5.07,4.74-1.9,1.32-4.01,2.04-6.33,2.16-1.04,1.56-2.15,2.98-3.33,4.26-1.18,1.28-2.45,2.38-3.81,3.3-1.36,.92-2.78,1.64-4.26,2.16-1.48,.52-3.02,.78-4.62,.78-2.28,0-4.18-.61-5.7-1.83-1.52-1.22-2.75-2.77-3.69-4.65-.94-1.88-1.6-3.96-1.98-6.24-.38-2.28-.57-4.5-.57-6.66v-1.77c0-.58,.04-1.11,.12-1.59,.16-1.92,.38-3.7,.66-5.34,.28-1.64,.64-3.04,1.08-4.2,.8-.96,1.73-1.66,2.79-2.1s2.15-.66,3.27-.66c.64,0,1.29,.08,1.95,.24,.66,.16,1.27,.38,1.83,.66,.2-2.12,.55-4.23,1.05-6.33,.5-2.1,1.24-3.99,2.22-5.67,.98-1.68,2.26-3.04,3.84-4.08,1.58-1.04,3.57-1.56,5.97-1.56m1.5,37.68c.76-1.24,1.47-2.61,2.13-4.11s1.25-3.04,1.77-4.62c.52-1.58,.95-3.2,1.29-4.86s.57-3.27,.69-4.83c.08-.56,.12-1.09,.12-1.59v-1.53c0-1.72-.15-3.34-.45-4.86-.3-1.52-.76-2.84-1.38-3.96-.62-1.12-1.42-2.01-2.4-2.67-.98-.66-2.13-.99-3.45-.99-.92,0-1.73,.33-2.43,.99-.7,.66-1.29,1.55-1.77,2.67-.48,1.12-.86,2.42-1.14,3.9-.28,1.48-.5,3.02-.66,4.62-.08,.72-.14,1.52-.18,2.4-.04,.88-.06,1.8-.06,2.76,0,1.68,.1,3.44,.3,5.28,.2,1.84,.59,3.55,1.17,5.13,.58,1.58,1.38,2.94,2.4,4.08,1.02,1.14,2.37,1.87,4.05,2.19m-9.66,7.2c1.36,0,2.62-.32,3.78-.96,1.16-.64,2.3-1.6,3.42-2.88-2-.6-3.72-1.39-5.16-2.37-1.44-.98-2.64-2.13-3.6-3.45-.96-1.32-1.71-2.78-2.25-4.38s-.91-3.32-1.11-5.16c-.12,.64-.21,1.3-.27,1.98-.06,.68-.13,1.36-.21,2.04-.12,1.28-.18,2.52-.18,3.72,0,1.48,.09,2.91,.27,4.29,.18,1.38,.49,2.6,.93,3.66,.44,1.06,1.02,1.91,1.74,2.55,.72,.64,1.6,.96,2.64,.96m8.16-46.88c-2.79,0-5.16,.64-7.07,1.89-1.83,1.21-3.34,2.8-4.47,4.74-1.07,1.84-1.89,3.93-2.44,6.21-.32,1.36-.59,2.74-.79,4.12-.71-.15-1.41-.22-2.09-.22-1.38,0-2.74,.27-4.04,.81-1.36,.56-2.56,1.46-3.56,2.67-.14,.17-.25,.36-.33,.57-.48,1.27-.88,2.81-1.18,4.58-.29,1.67-.51,3.5-.68,5.43-.09,.56-.13,1.18-.13,1.83v1.77c0,2.26,.2,4.62,.6,6.99,.41,2.47,1.14,4.76,2.16,6.81,1.06,2.13,2.49,3.92,4.23,5.32,1.87,1.51,4.21,2.27,6.95,2.27,1.82,0,3.6-.3,5.28-.89,1.63-.57,3.22-1.38,4.72-2.39,1.48-1,2.88-2.21,4.16-3.6,1.04-1.13,2.04-2.37,2.98-3.7,2.3-.28,4.43-1.09,6.36-2.43,2.05-1.43,3.9-3.15,5.49-5.13,1.56-1.94,2.92-4.01,4.05-6.17,1.09-2.09,2.01-3.98,2.71-5.64,.17-.4,.21-.85,.1-1.27-.23-.92-.61-1.58-1.16-2.03-.72-.57-1.4-.68-1.86-.68-.41,0-.82,.1-1.26,.29-.17,.08-.33,.14-.5,.21-.43,.17-.78,.49-1.01,.89l-1.32,2.4s-.02,.03-.03,.05c-.74,1.44-1.52,2.9-2.34,4.35-.76,1.35-1.61,2.61-2.53,3.73-.53,.65-1.09,1.24-1.69,1.77,.55-1.39,1.04-2.82,1.49-4.27,1.01-3.31,1.69-6.59,2.03-9.76,0-.05,.02-.1,.02-.15,.13-1.15,.19-2.38,.19-3.64,0-2.33-.23-4.56-.68-6.61-.47-2.14-1.23-4.04-2.25-5.63-1.07-1.66-2.44-2.99-4.08-3.97-1.69-1-3.72-1.51-6.03-1.51h0Zm.55,37.32c-.63-.28-1.17-.66-1.61-1.16-.85-.95-1.52-2.1-2.01-3.43-.52-1.42-.88-2.99-1.06-4.66-.19-1.75-.29-3.45-.29-5.06,0-.93,.02-1.83,.06-2.67,.04-.83,.09-1.59,.17-2.27,.15-1.55,.37-3.05,.64-4.47,.25-1.33,.59-2.5,1.01-3.48,.37-.86,.81-1.53,1.3-2,.33-.31,.65-.45,1.06-.45,.92,0,1.68,.21,2.33,.65,.72,.48,1.3,1.13,1.77,1.98,.52,.93,.91,2.07,1.17,3.38,.27,1.39,.41,2.89,.41,4.47v1.53c0,.4-.03,.84-.1,1.31,0,.04-.01,.08-.01,.13-.11,1.47-.33,3.01-.66,4.58-.32,1.57-.74,3.13-1.23,4.64-.5,1.52-1.07,3.01-1.7,4.44-.39,.9-.81,1.75-1.25,2.55h0Zm-8.71,7.56c-.55,0-.96-.14-1.31-.45-.49-.43-.9-1.05-1.22-1.82-.37-.89-.64-1.95-.8-3.15-.06-.49-.11-.98-.15-1.49,.1,.15,.2,.29,.3,.43,1.09,1.5,2.47,2.82,4.09,3.93,.78,.53,1.63,1.01,2.55,1.44-.22,.15-.44,.29-.65,.41-.87,.48-1.79,.71-2.81,.71h0Z"/></g><g><path class="cls-2" d="M498.85,86.71c-1.38,0-2.69-.13-3.89-.37-1.24-.26-2.33-.67-3.25-1.21-.96-.58-1.71-1.32-2.24-2.22-.54-.93-.77-2.03-.67-3.27,.12-.82,.49-1.56,1.11-2.29,.87-1.01,1.82-1.22,2.47-1.22,.96,0,1.66,.57,1.82,1.48,.1,.52,.12,1.08,.07,1.65,0,.33,.09,.65,.25,.87,.19,.25,.44,.44,.77,.57,.41,.16,.87,.27,1.38,.32,.32,.03,.65,.05,.97,.05,.22,0,.44,0,.66-.02,2.94-.11,4.96-.98,6.23-2.66,1.31-1.75,2.03-4.21,2.14-7.31,0-.96-.14-2.11-.43-3.38-.29-1.3-.68-2.67-1.14-4.08-.46-1.39-1.01-2.79-1.64-4.17-.33-.73-.69-1.43-1.06-2.1l-1.86,4.19c-.17,.37-.53,.59-.91,.59-.11,0-.23-.02-.34-.06l-2.16-.78c-.26-.09-.47-.29-.58-.54-.11-.25-.11-.54,0-.79l2.96-6.98c-1.3-1.77-2.38-3.82-3.21-6.1-.92-2.5-1.38-5.08-1.38-7.67,0-2.03,.35-4.03,1.05-5.93,.72-1.97,1.99-3.69,3.76-5.12,.78-.7,1.76-1.25,2.87-1.61,1.08-.35,2.18-.53,3.28-.53,.76,0,1.51,.09,2.22,.27,.77,.19,1.45,.51,2.04,.95,.6,.45,1.09,1.04,1.46,1.75,.37,.72,.56,1.57,.56,2.53,0,1.35-.3,2.89-.9,4.59-.57,1.62-1.24,3.36-2,5.16-.35,.9-.72,1.83-1.11,2.75-.31,.75-.6,1.52-.87,2.29,1.45,2.17,2.86,4.41,4.19,6.66,1.41,2.38,2.67,4.7,3.76,6.91,1.09,2.22,1.98,4.34,2.63,6.3,.29,.88,.53,1.72,.7,2.5,.41-.65,.81-1.31,1.21-1.98,.88-1.47,1.72-2.94,2.54-4.39,.81-1.44,1.56-2.83,2.23-4.14,.66-1.27,1.22-2.4,1.69-3.37,.06-.17,.15-.3,.23-.4l.33-.66c.01-.1,.04-.2,.09-.29,.23-.46,.45-.82,.66-1.11,.26-.35,.77-.76,1.73-.76,.66,0,1.85,.24,2.49,1.83,.11,.27,.09,.56-.03,.82l-.36,.72c-.05,.1-.11,.18-.19,.26l-.07,.07c-.58,1.13-1.25,2.44-1.99,3.93-.78,1.55-1.64,3.22-2.56,4.94-.93,1.73-1.92,3.5-2.96,5.26-1.05,1.78-2.13,3.49-3.21,5.09-1.1,1.62-2.23,3.12-3.37,4.44-1.16,1.35-2.3,2.46-3.39,3.29-1.04,.74-2.18,1.38-3.42,1.92-1.21,.53-2.47,.99-3.75,1.36-1.27,.37-2.57,.66-3.87,.87-1.31,.21-2.56,.31-3.73,.31Zm8.12-53.87c-.05,.05-.12,.12-.19,.2-.35,.42-.69,1.02-1.01,1.78-.33,.8-.62,1.73-.84,2.74-.22,1-.34,2.02-.34,3.02,0,.07,0,.15,0,.22,.18-.45,.37-.91,.56-1.4,.4-1.01,.77-2.01,1.09-2.98,.31-.92,.54-1.76,.69-2.49,.16-.77,.08-1.01,.08-1.02-.01-.03-.02-.05-.04-.08Z"/><path class="cls-1" d="M505.87,27.03c.68,0,1.34,.08,1.98,.24s1.2,.42,1.68,.78c.48,.36,.87,.83,1.17,1.41,.3,.58,.45,1.27,.45,2.07,0,1.24-.28,2.66-.84,4.26-.56,1.6-1.22,3.3-1.98,5.1-.36,.92-.73,1.84-1.11,2.76-.38,.92-.73,1.86-1.05,2.82,1.56,2.32,3.04,4.66,4.44,7.02,1.4,2.36,2.64,4.64,3.72,6.84,1.08,2.2,1.94,4.26,2.58,6.18,.64,1.92,.98,3.58,1.02,4.98,.92-1.36,1.82-2.78,2.7-4.26,.88-1.48,1.73-2.95,2.55-4.41,.82-1.46,1.57-2.85,2.25-4.17,.68-1.32,1.26-2.48,1.74-3.48,0-.04,.04-.1,.12-.18,.04-.04,.06-.08,.06-.12l.48-.96h-.06c.2-.4,.39-.72,.57-.96s.49-.36,.93-.36c.72,0,1.24,.4,1.56,1.2l-.36,.72-.18,.18c-.6,1.16-1.29,2.52-2.07,4.08-.78,1.56-1.63,3.2-2.55,4.92-.92,1.72-1.9,3.46-2.94,5.22-1.04,1.76-2.1,3.44-3.18,5.04-1.08,1.6-2.18,3.05-3.3,4.35-1.12,1.3-2.2,2.35-3.24,3.15-.96,.68-2.03,1.28-3.21,1.8s-2.39,.96-3.63,1.32c-1.24,.36-2.49,.64-3.75,.84-1.26,.2-2.45,.3-3.57,.3-1.32,0-2.55-.12-3.69-.35-1.14-.24-2.12-.6-2.94-1.09-.82-.49-1.45-1.11-1.89-1.87-.44-.75-.62-1.65-.54-2.69,.08-.56,.37-1.13,.87-1.71s1.07-.87,1.71-.87c.48,0,.76,.22,.84,.66,.08,.44,.1,.9,.06,1.38,0,.64,.15,1.16,.45,1.56,.3,.4,.7,.7,1.2,.9,.5,.2,1.05,.33,1.65,.39,.36,.04,.71,.05,1.07,.05,.24,0,.49,0,.73-.02,3.2-.12,5.52-1.14,6.96-3.06,1.44-1.92,2.22-4.54,2.34-7.87,0-1.08-.15-2.29-.45-3.63-.3-1.34-.69-2.73-1.17-4.17-.48-1.44-1.04-2.86-1.68-4.26-.64-1.4-1.34-2.68-2.1-3.84l-2.64,5.95-2.16-.78,3.18-7.51c-1.4-1.8-2.54-3.9-3.42-6.31s-1.32-4.84-1.32-7.33c0-1.92,.33-3.78,.99-5.59,.66-1.8,1.81-3.36,3.45-4.69,.72-.64,1.57-1.12,2.55-1.44,.98-.32,1.97-.48,2.97-.48m-1.56,17.1l.6-1.44c.36-.88,.75-1.85,1.17-2.91,.42-1.06,.79-2.07,1.11-3.03,.32-.96,.56-1.83,.72-2.61,.16-.78,.16-1.33,0-1.65h.06c-.24-.48-.5-.74-.78-.78-.03,0-.05,0-.08,0-.34,0-.7,.23-1.09,.69-.42,.5-.81,1.18-1.17,2.04-.36,.86-.66,1.83-.9,2.91s-.36,2.16-.36,3.24c0,1.28,.24,2.46,.72,3.54m1.56-19.1c-1.21,0-2.42,.19-3.59,.58-1.22,.4-2.31,1.01-3.22,1.81-1.9,1.54-3.26,3.4-4.04,5.53-.74,2.01-1.11,4.13-1.11,6.27,0,2.71,.49,5.4,1.44,8.02,.8,2.18,1.81,4.15,3.01,5.89l-2.74,6.46c-.21,.51-.21,1.08,0,1.58,.22,.5,.64,.89,1.15,1.08l2.16,.78c.22,.08,.45,.12,.68,.12,.77,0,1.5-.45,1.83-1.19l1.01-2.27c.03,.06,.06,.12,.09,.19,.61,1.34,1.15,2.71,1.6,4.06,.46,1.37,.83,2.71,1.12,3.98,.26,1.18,.4,2.24,.4,3.16-.11,2.88-.76,5.13-1.94,6.71-1.07,1.43-2.85,2.17-5.43,2.26-.02,0-.04,0-.06,0-.2,.01-.4,.02-.6,.02-.29,0-.58-.01-.87-.04-.41-.04-.79-.13-1.11-.26-.21-.08-.29-.17-.34-.24,0,0-.04-.08-.05-.3,.04-.62,.01-1.23-.09-1.81-.25-1.4-1.36-2.3-2.81-2.3-.86,0-2.11,.27-3.22,1.57-.75,.87-1.2,1.79-1.33,2.73,0,.04-.01,.09-.01,.13-.11,1.45,.16,2.74,.81,3.85,.61,1.04,1.48,1.91,2.59,2.57,1.01,.61,2.21,1.06,3.56,1.34,1.26,.26,2.64,.4,4.1,.4,1.22,0,2.53-.11,3.88-.32,1.35-.21,2.69-.52,4-.9,1.32-.38,2.63-.86,3.88-1.41,1.3-.57,2.49-1.24,3.56-2,.02-.01,.04-.03,.06-.05,1.14-.88,2.33-2.03,3.54-3.43,1.17-1.35,2.32-2.88,3.44-4.54,1.09-1.62,2.18-3.35,3.24-5.14,1.05-1.77,2.05-3.55,2.98-5.3,.93-1.74,1.8-3.41,2.58-4.97,.71-1.43,1.35-2.69,1.92-3.78,.13-.14,.25-.3,.33-.48l.36-.72c.26-.51,.28-1.11,.07-1.64-.63-1.56-1.87-2.45-3.42-2.45-1.45,0-2.21,.73-2.53,1.16-.25,.34-.5,.75-.76,1.26-.07,.14-.12,.29-.16,.44l-.22,.44c-.13,.18-.23,.36-.3,.56-.45,.94-.99,2.01-1.65,3.29-.67,1.3-1.42,2.68-2.22,4.11-.81,1.44-1.66,2.91-2.52,4.36-.03-.11-.07-.22-.11-.32-.67-2-1.57-4.17-2.68-6.43-1.1-2.23-2.37-4.58-3.79-6.98-1.26-2.12-2.58-4.23-3.95-6.28,.21-.6,.44-1.19,.68-1.77,.38-.92,.75-1.84,1.11-2.77,.76-1.81,1.44-3.56,2.01-5.19,.63-1.8,.95-3.46,.95-4.92,0-1.12-.23-2.12-.67-2.99-.44-.84-1.02-1.55-1.74-2.09-.7-.52-1.5-.9-2.4-1.12-.8-.2-1.62-.3-2.47-.3h0Zm1.81,8.52h0Z"/></g></g></g></svg>